<svg width="24" height="24" viewBox="0 0 24 24" fill="none" xmlns="http://www.w3.org/2000/svg">
<path fill-rule="evenodd" clip-rule="evenodd" d="M1.25 4C1.25 3.58579 1.58579 3.25 2 3.25H16C16.4142 3.25 16.75 3.58579 16.75 4C16.75 4.41421 16.4142 4.75 16 4.75H2C1.58579 4.75 1.25 4.41421 1.25 4Z" fill="white"/>
<path fill-rule="evenodd" clip-rule="evenodd" d="M13.25 10.5C13.25 10.0858 13.5858 9.75 14 9.75H22C22.4142 9.75 22.75 10.0858 22.75 10.5C22.75 10.9142 22.4142 11.25 22 11.25H14C13.5858 11.25 13.25 10.9142 13.25 10.5Z" fill="white"/>
<path fill-rule="evenodd" clip-rule="evenodd" d="M9 3.25C9.41421 3.25 9.75 3.58579 9.75 4V21C9.75 21.4142 9.41421 21.75 9 21.75C8.58579 21.75 8.25 21.4142 8.25 21V4C8.25 3.58579 8.58579 3.25 9 3.25Z" fill="white"/>
<path fill-rule="evenodd" clip-rule="evenodd" d="M18 9.75C18.4142 9.75 18.75 10.0858 18.75 10.5V21C18.75 21.4142 18.4142 21.75 18 21.75C17.5858 21.75 17.25 21.4142 17.25 21V10.5C17.25 10.0858 17.5858 9.75 18 9.75Z" fill="white"/>
</svg>
