<svg width="24" height="24" viewBox="0 0 24 24" fill="none" xmlns="http://www.w3.org/2000/svg">
<path d="M4.19995 8.09998L7 8.10004M19.8 8.09998H12.4905M12.4905 8.09998C12.4905 9.61616 11.2615 10.8453 9.7453 10.8453C8.22911 10.8453 7 9.61622 7 8.10004M12.4905 8.09998C12.4905 6.58379 11.2615 5.35474 9.7453 5.35474C8.22911 5.35474 7 6.58385 7 8.10004" stroke="#2E3777" stroke-width="1.5" stroke-linecap="round"/>
<path d="M19.8 15.9001H16.9999M4.19995 15.9001H11.5093M11.5093 15.9001C11.5093 17.4163 12.7384 18.6454 14.2546 18.6454C15.7708 18.6454 16.9999 17.4163 16.9999 15.9001M11.5093 15.9001C11.5093 14.3839 12.7384 13.1548 14.2546 13.1548C15.7708 13.1548 16.9999 14.3839 16.9999 15.9001" stroke="#2E3777" stroke-width="1.5" stroke-linecap="round"/>
</svg>
