<svg width="24" height="24" viewBox="0 0 24 24" fill="none" xmlns="http://www.w3.org/2000/svg">
<path d="M3.30005 5V4.25H2.55002L2.55005 5.00002L3.30005 5ZM11.8304 13.5303C12.1233 13.2374 12.1233 12.7625 11.8304 12.4697C11.5375 12.1768 11.0626 12.1768 10.7697 12.4697L11.8304 13.5303ZM3.30005 21L2.55005 21L2.55004 21.75H3.30005V21ZM19.3001 21V21.75H20.0501V21H19.3001ZM3.30012 7.82353L4.05012 7.82353V7.82353H3.30012ZM10.8295 5.75H11.5795V4.25H10.8295V5.75ZM20.0501 13.9412V13.1912H18.5501V13.9412H20.0501ZM10.7697 12.4697L2.76972 20.4697L3.83038 21.5303L11.8304 13.5303L10.7697 12.4697ZM19.3001 20.25H3.30005V21.75H19.3001V20.25ZM4.05005 21L4.05012 7.82353L2.55012 7.82352L2.55005 21L4.05005 21ZM6.12365 4.25H3.30005V5.75H6.12365V4.25ZM3.30005 5C2.55005 5.00002 2.55005 5.00003 2.55005 5.00005C2.55005 5.00006 2.55005 5.00009 2.55005 5.00012C2.55005 5.00019 2.55005 5.00028 2.55005 5.00041C2.55005 5.00067 2.55005 5.00106 2.55005 5.00157C2.55005 5.0026 2.55005 5.00413 2.55005 5.00615C2.55005 5.0102 2.55005 5.01622 2.55005 5.0241C2.55005 5.03986 2.55005 5.06306 2.55005 5.09284C2.55005 5.15239 2.55006 5.23825 2.55006 5.34345C2.55007 5.55385 2.55007 5.84162 2.55008 6.15112C2.5501 6.77011 2.55012 7.47598 2.55012 7.82353H4.05012C4.05012 7.47596 4.0501 6.77006 4.05008 6.15107C4.05007 5.84158 4.05007 5.5538 4.05006 5.3434C4.05006 5.2382 4.05005 5.15235 4.05005 5.09279C4.05005 5.06301 4.05005 5.03981 4.05005 5.02405C4.05005 5.01617 4.05005 5.01015 4.05005 5.0061C4.05005 5.00408 4.05005 5.00255 4.05005 5.00152C4.05005 5.00101 4.05005 5.00062 4.05005 5.00036C4.05005 5.00023 4.05005 5.00014 4.05005 5.00007C4.05005 5.00004 4.05005 5.00002 4.05005 5C4.05005 4.99998 4.05005 4.99998 3.30005 5ZM6.12365 5.75H10.8295V4.25H6.12365V5.75ZM18.5501 13.9412V21H20.0501V13.9412H18.5501ZM19.8304 20.4697L3.83038 4.46967L2.76972 5.53033L18.7698 21.5303L19.8304 20.4697Z" fill="#2E3777"/>
<path d="M17.5001 11L17.0079 11.566L17.5001 11.9939L17.9922 11.566L17.5001 11ZM16.7501 6.2C16.7501 6.61421 17.0858 6.95 17.5001 6.95C17.9143 6.95 18.2501 6.61421 18.2501 6.2H16.7501ZM18.2501 6.13984C18.2501 5.72563 17.9143 5.38984 17.5001 5.38984C17.0858 5.38984 16.7501 5.72563 16.7501 6.13984H18.2501ZM19.9501 6.13043C19.9501 6.47364 19.8136 6.91013 19.5404 7.41478C19.2728 7.90938 18.9064 8.41031 18.5247 8.86666C18.1452 9.32052 17.7634 9.71492 17.4756 9.99648C17.3321 10.1368 17.2131 10.248 17.1309 10.3233C17.0898 10.361 17.058 10.3896 17.037 10.4084C17.0264 10.4177 17.0186 10.4246 17.0137 10.4289C17.0113 10.4311 17.0096 10.4326 17.0086 10.4335C17.0081 10.4339 17.0078 10.4342 17.0077 10.4343C17.0076 10.4343 17.0076 10.4343 17.0077 10.4343C17.0077 10.4343 17.0077 10.4342 17.0077 10.4342C17.0078 10.4341 17.0079 10.434 17.5001 11C17.9922 11.566 17.9923 11.5659 17.9924 11.5657C17.9925 11.5657 17.9926 11.5656 17.9927 11.5655C17.993 11.5653 17.9933 11.565 17.9936 11.5647C17.9943 11.5641 17.9951 11.5634 17.9962 11.5625C17.9983 11.5606 18.0011 11.5581 18.0047 11.555C18.0119 11.5486 18.0221 11.5396 18.035 11.5281C18.0609 11.5051 18.0978 11.4719 18.1442 11.4294C18.237 11.3444 18.368 11.2219 18.5245 11.0687C18.8367 10.7633 19.255 10.3317 19.6754 9.82899C20.0937 9.32882 20.5273 8.74279 20.8597 8.1287C21.1866 7.52465 21.4501 6.8307 21.4501 6.13043H19.9501ZM17.5001 11C17.9922 10.434 17.9923 10.4341 17.9924 10.4342C17.9924 10.4342 17.9924 10.4343 17.9925 10.4343C17.9925 10.4343 17.9925 10.4343 17.9924 10.4343C17.9923 10.4342 17.992 10.4339 17.9915 10.4335C17.9905 10.4326 17.9888 10.4311 17.9864 10.4289C17.9815 10.4246 17.9737 10.4177 17.9631 10.4084C17.9421 10.3896 17.9103 10.361 17.8692 10.3233C17.787 10.248 17.668 10.1368 17.5245 9.99648C17.2367 9.71492 16.8549 9.32052 16.4754 8.86666C16.0937 8.41031 15.7273 7.90938 15.4597 7.41478C15.1865 6.91013 15.05 6.47364 15.05 6.13043H13.55C13.55 6.8307 13.8135 7.52465 14.1404 8.1287C14.4728 8.74279 14.9064 9.32882 15.3247 9.82899C15.7452 10.3317 16.1634 10.7633 16.4756 11.0687C16.6321 11.2219 16.7631 11.3444 16.8559 11.4294C16.9023 11.4719 16.9392 11.5051 16.9651 11.5281C16.978 11.5396 16.9882 11.5486 16.9954 11.555C16.999 11.5581 17.0018 11.5606 17.0039 11.5625C17.005 11.5634 17.0058 11.5641 17.0065 11.5647C17.0068 11.565 17.0071 11.5653 17.0074 11.5655C17.0075 11.5656 17.0076 11.5657 17.0077 11.5657C17.0078 11.5659 17.0079 11.566 17.5001 11ZM15.05 6.13043C15.05 4.83121 16.1313 3.75 17.5001 3.75V2.25C15.3342 2.25 13.55 3.97187 13.55 6.13043H15.05ZM17.5001 3.75C18.8688 3.75 19.9501 4.83121 19.9501 6.13043H21.4501C21.4501 3.97187 19.666 2.25 17.5001 2.25V3.75ZM18.2501 6.2V6.13984H16.7501V6.2H18.2501Z" fill="#B52019"/>
</svg>
