<svg width="86" height="46" viewBox="0 0 86 46" fill="none" xmlns="http://www.w3.org/2000/svg">
<path d="M72.39 25.99L71.62 24.82C71.28 24.3 70.57 24.16 70.05 24.5L69.7 24.73C70.43 26.12 70.93 27.38 71.28 28.53L72.07 27.55C72.59 27.21 72.73 26.51 72.39 25.99Z" fill="#2E3777"/>
<path d="M66.89 22.1301C63.37 24.3401 59.67 26.4501 55.9 28.4801C62.9 32.2401 70.56 36.3401 70.56 36.3401C70.56 36.3401 73.12 31.1201 66.9 22.1301C66.89 22.1301 66.89 22.1301 66.89 22.1301Z" fill="#B52019"/>
<path d="M83.84 0.930116C82.79 0.770116 81.36 1.08012 79.84 1.61012C79.84 1.61012 79.83 1.61012 79.82 1.61012C79.77 1.63012 75.95 3.16012 73.27 4.45012C70.56 5.75012 71.81 3.38012 71.81 3.38012C71.81 3.38012 73.69 2.14012 76.37 1.58012C75.88 1.63012 75.39 1.70011 74.94 1.78011C70.9 2.54011 69.82 3.13011 59.89 9.85011C59.41 10.1801 58.88 10.5301 58.31 10.9001C60.01 10.8501 61.63 10.8001 63.08 10.7401L64.95 10.6601L63.97 12.2601C63.83 12.5001 60.36 18.1201 55.5 22.0801C50.73 25.9701 46.85 26.8201 46.42 26.9001L46.17 26.9501L37.02 24.3201C28.68 29.4601 21.58 33.7601 21.58 33.7601L5.66999 33.5801L0.73999 35.6201C0.73999 35.6201 8.27999 41.4401 13.06 43.2301L14.11 44.8801C14.7 45.8001 15.94 46.0801 16.86 45.4901L21.03 42.8301C25.36 41.5001 31 38.8701 37.98 35.5601C48.21 30.7201 61.41 24.3501 72.15 17.1801C72.16 17.1701 72.17 17.1701 72.19 17.1601C84.55 10.4901 87.23 1.46012 83.84 0.930116Z" fill="#B52019"/>
<path d="M41.75 10.9202C41.74 10.9102 41.74 10.9102 41.74 10.9002L40.22 8.95016C39.55 8.09016 38.29 7.93016 37.42 8.60016L34.33 11.0102C36.58 10.9102 39.13 10.9002 41.75 10.9202Z" fill="#2E3777"/>
<path d="M63.13 11.7401C63.13 11.7401 59.66 17.4101 54.88 21.3101C50.09 25.2101 46.23 25.9301 46.23 25.9301L18.83 18.0401C18.83 18.0401 21.02 14.4001 28.34 12.7001C35.66 11.0001 53.69 12.1501 63.13 11.7401Z" fill="#B52019"/>
</svg>
