<svg width="68" height="72" viewBox="0 0 68 72" fill="none" xmlns="http://www.w3.org/2000/svg">
<path d="M22.09 18.7001V0.610107H17.88V19.5101C19.25 19.0701 20.66 18.8001 22.09 18.7001Z" fill="#2E3777"/>
<path d="M8.45001 26.4201V0.600098H6.57001V29.8001C7.06001 28.6301 7.70001 27.5001 8.45001 26.4201Z" fill="#2E3777"/>
<path d="M12.62 22.1801V0.610107H9.70001V24.8501C10.59 23.8401 11.57 22.9501 12.62 22.1801Z" fill="#2E3777"/>
<path d="M16.75 19.9001V0.610107H13.83V21.3601C14.76 20.7801 15.74 20.2901 16.75 19.9001Z" fill="#2E3777"/>
<path d="M35.05 22.8601C35.32 23.0801 35.56 23.3301 35.81 23.5601V0.610107H32.89V21.3401C33.63 21.7901 34.36 22.2801 35.05 22.8601Z" fill="#2E3777"/>
<path d="M41.4 34.0901V0.610107H37.19V24.9801C39.47 27.6201 40.89 30.7901 41.4 34.0901Z" fill="#2E3777"/>
<path d="M31.63 20.6201V0.610107H29.75V19.8001C30.38 20.0401 31.01 20.3101 31.63 20.6201Z" fill="#2E3777"/>
<path d="M28.46 19.3701V0.610107H26.58V18.9401C27.21 19.0501 27.84 19.1901 28.46 19.3701Z" fill="#2E3777"/>
<path d="M25.55 18.7801V0.610107H23.11V18.6601C23.92 18.6401 24.74 18.6901 25.55 18.7801Z" fill="#2E3777"/>
<path d="M60.63 0.610107H58.75V36.5701H60.63V0.610107Z" fill="#2E3777"/>
<path d="M57.36 0.610107H54.44V36.5701H57.36V0.610107Z" fill="#2E3777"/>
<path d="M63.96 0.610107H62.08V45.3201H63.96V0.610107Z" fill="#2E3777"/>
<path d="M67.13 0.610107H65.25V45.3201H67.13V0.610107Z" fill="#2E3777"/>
<path d="M48.07 0.610107H45.63V36.5701H48.07V0.610107Z" fill="#2E3777"/>
<path d="M52.56 0.610107H49.64V36.5701H52.56V0.610107Z" fill="#2E3777"/>
<path d="M44.63 0.610107H42.75V36.5701H44.63V0.610107Z" fill="#2E3777"/>
<path d="M5.28 34.7201V0.610107H3.39999V45.3201H5.28V39.0301C5.11 37.6001 5.1 36.1501 5.28 34.7201Z" fill="#2E3777"/>
<path d="M2.10999 0.610107H0.230011V45.3201H2.10999V0.610107Z" fill="#2E3777"/>
<path d="M35.05 22.86C27.3 16.41 15.79 17.48 9.35 25.23C2.91 32.98 3.97 44.49 11.72 50.93C19.47 57.37 30.98 56.31 37.42 48.56C43.87 40.81 42.8 29.3 35.05 22.86ZM36.24 47.57C30.34 54.67 19.81 55.64 12.71 49.74C5.60999 43.84 4.64 33.3 10.54 26.21C16.44 19.11 26.97 18.14 34.07 24.04C41.16 29.94 42.13 40.48 36.24 47.57Z" fill="#B52019"/>
<path d="M32.36 26.0899C26.39 21.1299 17.54 21.9499 12.58 27.9099C7.61999 33.8699 8.44 42.7299 14.4 47.6899C20.37 52.6499 29.22 51.8299 34.18 45.8699C39.15 39.9099 38.33 31.0499 32.36 26.0899ZM32.97 44.8599C28.57 50.1499 20.71 50.8799 15.41 46.4799C10.11 42.0799 9.39001 34.2199 13.79 28.9199C18.19 23.6199 26.05 22.8999 31.35 27.2999C36.65 31.7099 37.38 39.5699 32.97 44.8599Z" fill="#B52019"/>
<path d="M38.28 49.38C37.6 50.2 36.84 50.92 36.03 51.54L36.89 52.25L40.85 47.49L39.99 46.78C39.53 47.68 38.96 48.56 38.28 49.38Z" fill="#B52019"/>
<path d="M37.78 52.9799L39.4 54.33C40 54.83 40.9 54.74 41.39 54.14L43.54 51.55C44.04 50.95 43.95 50.06 43.36 49.56L41.74 48.21L37.78 52.9799Z" fill="#B52019"/>
<path d="M44.58 52.43L42.43 55.02C42.32 55.15 42.18 55.26 42.04 55.34L59.6 70.72C60.2 71.22 61.1 71.13 61.59 70.54L63.34 68.43C63.84 67.83 63.76 66.93 63.16 66.44L44.82 51.99C44.78 52.14 44.7 52.29 44.58 52.43Z" fill="#B52019"/>
<path d="M25.37 28.79C24.32 28.85 23.14 29.05 21.89 29.51V38.92H25.37V28.79Z" fill="#2E3777"/>
<path d="M20.45 30.1602C19.42 30.6902 18.37 31.3802 17.32 32.3302C16.05 33.4702 15.13 34.6802 14.45 35.8302V38.9202H20.45V30.1602Z" fill="#2E3777"/>
<path d="M31.87 43.94C32.92 42.68 33.63 41.25 34.03 39.77V34.01C33.56 32.27 32.66 30.63 31.35 29.26V44.52C31.52 44.33 31.7 44.15 31.87 43.94Z" fill="#2E3777"/>
<path d="M26.83 28.79V47.36C27.77 47.05 28.67 46.62 29.51 46.06V29.2701C29.06 29.1201 28.11 28.87 26.83 28.79Z" fill="#2E3777"/>
<path d="M17.48 29.71C18.5 29 19.49 28.51 20.45 28.17V26.27C18.35 26.85 16.4 28.04 14.9 29.84C14.74 30.04 14.59 30.24 14.45 30.44V32.67C15.19 31.64 16.17 30.63 17.48 29.71Z" fill="#2E3777"/>
<path d="M29.52 29.1802V27.7302C28.67 27.1602 27.77 26.7402 26.84 26.4302V27.9802C28.13 28.3602 29.07 28.8902 29.52 29.1802Z" fill="#2E3777"/>
<path d="M25.37 27.6601V26.0501C24.22 25.8401 23.04 25.8201 21.89 25.9801V27.7601C23.16 27.5001 24.34 27.5001 25.37 27.6601Z" fill="#2E3777"/>
</svg>
