<svg width="40" height="40" viewBox="0 0 40 40" fill="none" xmlns="http://www.w3.org/2000/svg">
<path fill-rule="evenodd" clip-rule="evenodd" d="M17.0833 5C17.0833 4.30964 17.6429 3.75 18.3333 3.75H26.6666C27.3569 3.75 27.9166 4.30964 27.9166 5V35C27.9166 35.6904 27.3569 36.25 26.6666 36.25H18.3333C17.6429 36.25 17.0833 35.6904 17.0833 35V5ZM19.5833 6.25V33.75H25.4166V6.25H19.5833Z" fill="white"/>
<path fill-rule="evenodd" clip-rule="evenodd" d="M25.4167 5C25.4167 4.30964 25.9764 3.75 26.6667 3.75H35.0001C35.6904 3.75 36.2501 4.30964 36.2501 5V35C36.2501 35.6904 35.6904 36.25 35.0001 36.25H26.6667C25.9764 36.25 25.4167 35.6904 25.4167 35V5ZM27.9167 6.25V33.75H33.7501V6.25H27.9167Z" fill="white"/>
<path fill-rule="evenodd" clip-rule="evenodd" d="M7.56082 4.01738C7.82323 3.81105 8.15726 3.71825 8.48849 3.75966L15.1552 4.59299C15.8283 4.67713 16.3114 5.28275 16.2439 5.95772L13.3272 35.1244C13.2939 35.458 13.1279 35.7643 12.8665 35.9743C12.6052 36.1844 12.2704 36.2806 11.9374 36.2414L4.85406 35.4081C4.17004 35.3276 3.67999 34.709 3.7582 34.0247L7.09153 4.85807C7.12943 4.52642 7.29841 4.22371 7.56082 4.01738ZM9.43192 6.39704L6.38349 33.0708L10.9662 33.6099L13.635 6.92242L9.43192 6.39704Z" fill="white"/>
<path fill-rule="evenodd" clip-rule="evenodd" d="M30.8333 11.25C31.5236 11.25 32.0833 11.8096 32.0833 12.5V15C32.0833 15.6904 31.5236 16.25 30.8333 16.25C30.1429 16.25 29.5833 15.6904 29.5833 15V12.5C29.5833 11.8096 30.1429 11.25 30.8333 11.25Z" fill="white"/>
<path fill-rule="evenodd" clip-rule="evenodd" d="M22.5 11.25C23.1904 11.25 23.75 11.8096 23.75 12.5V15C23.75 15.6904 23.1904 16.25 22.5 16.25C21.8096 16.25 21.25 15.6904 21.25 15V12.5C21.25 11.8096 21.8096 11.25 22.5 11.25Z" fill="white"/>
</svg>
