<svg width="80" height="59" viewBox="0 0 80 59" fill="none" xmlns="http://www.w3.org/2000/svg">
<path d="M41.76 11.04H41.75L15.64 17.31L34.01 33.2L41.76 30.67V11.04Z" fill="#2E3777"/>
<path d="M34.93 58.8699L64.1 49.2999V33.3999L50.31 38.5399L35.72 34.0899L34.93 34.3599V58.8699Z" fill="#2E3777"/>
<path d="M17.23 34.3301L33.29 35.4601V58.5601L15.64 43.2701V32.8701L17.23 34.3301Z" fill="#2E3777"/>
<path d="M36.75 33.7501L50.07 37.2301L79.82 26.4501L66.81 23.8201L36.75 33.7501Z" fill="#B52019"/>
<path d="M33.29 34.33L17.45 33.2L0.109985 15.75L14.94 18.18L33.29 34.33Z" fill="#B52019"/>
<path d="M43.05 10.3699L53.2 2.95996L75.39 14.57L64.98 22.49L43.05 10.3699Z" fill="#B52019"/>
<path d="M41.67 9.92003L36.75 0.780029L10.14 6.65002L15.11 16.28L41.67 9.92003Z" fill="#B52019"/>
</svg>
