<svg width="64" height="70" viewBox="0 0 64 70" fill="none" xmlns="http://www.w3.org/2000/svg">
<path d="M6.17996 36.67C5.43996 36.51 4.88998 35.85 4.88998 35.06C4.88998 34.15 5.62998 33.41 6.53998 33.41C7.44998 33.41 8.18997 34.15 8.18997 35.06C8.18997 35.85 7.63996 36.51 6.89996 36.67H9.73996C9.98996 36.18 10.14 35.64 10.14 35.06C10.14 33.07 8.52998 31.46 6.53998 31.46C4.54998 31.46 2.93997 33.07 2.93997 35.06C2.93997 35.64 3.08997 36.18 3.33997 36.67H6.17996Z" fill="#B52019"/>
<path d="M56.99 36.67C56.25 36.51 55.7 35.85 55.7 35.06C55.7 34.15 56.44 33.41 57.35 33.41C58.26 33.41 59 34.15 59 35.06C59 35.85 58.45 36.51 57.71 36.67H60.55C60.79 36.18 60.95 35.64 60.95 35.06C60.95 33.07 59.34 31.46 57.35 31.46C55.36 31.46 53.75 33.07 53.75 35.06C53.75 35.64 53.9 36.18 54.15 36.67H56.99Z" fill="#B52019"/>
<path d="M63.12 67.1301C63.12 68.1701 62.27 69.0201 61.23 69.0201H2.11996C1.07996 69.0201 0.22998 68.1701 0.22998 67.1301V36.9501C0.22998 35.9101 1.07996 35.0601 2.11996 35.0601H61.23C62.27 35.0601 63.12 35.9101 63.12 36.9501V67.1301Z" fill="#2E3777"/>
<path d="M6.74997 65.7301H4.22998V38.3601H6.74997V65.7301ZM12.57 38.3601H10.05V65.7301H12.57V38.3601ZM18.39 38.3601H15.87V65.7301H18.39V38.3601ZM24.21 38.3601H21.69V65.7301H24.21V38.3601ZM30.03 38.3601H27.51V65.7301H30.03V38.3601ZM35.85 38.3601H33.33V65.7301H35.85V38.3601ZM41.67 38.3601H39.15V65.7301H41.67V38.3601ZM47.49 38.3601H44.97V65.7301H47.49V38.3601ZM53.31 38.3601H50.79V65.7301H53.31V38.3601ZM59.12 38.3601H56.6V65.7301H59.12V38.3601Z" fill="white"/>
<path d="M35.98 15.21C35.72 13.42 34.4 12.73 33.48 11.74H30.07C30.12 12.68 30.44 13.44 31.52 13.9C32.37 14.27 33.04 14.88 33.35 15.57L35.98 16.87C36.06 16.34 36.07 15.77 35.98 15.21Z" fill="#B52019"/>
<path d="M36.29 0.0300293H27.11V3.14003H36.29V0.0300293Z" fill="#B52019"/>
<path d="M31.31 18.36C30.4 18.37 29.48 17.94 29.17 17.02C28.77 15.84 27.99 16.31 28.01 16.67C28.02 16.78 27.63 19.43 30.89 20.06C31.99 20.27 32.89 20.2 33.63 19.94L31.31 18.36Z" fill="#B52019"/>
<path d="M36.29 4.33008H27.11L27.96 11.2001H35.43L36.29 4.33008Z" fill="#B52019"/>
<path d="M27.27 18.3701L7.67996 30.5601L9.50998 31.6401L28.38 19.9001C27.97 19.5601 27.45 19.0201 27.27 18.3701Z" fill="#2E3777"/>
<path d="M31.67 15.6201L30.11 16.5901C30.36 16.9101 30.83 17.4001 31.68 17.8401L54.18 31.6401L56.05 30.5901L31.67 15.6201Z" fill="#2E3777"/>
</svg>
