<svg width="24" height="24" viewBox="0 0 24 24" fill="none" xmlns="http://www.w3.org/2000/svg">
<path d="M4.2002 8.09973L7.00024 8.09979M19.8002 8.09973H12.4908M12.4908 8.09973C12.4908 9.61592 11.2617 10.8451 9.74554 10.8451C8.22936 10.8451 7.00024 9.61598 7.00024 8.09979M12.4908 8.09973C12.4908 6.58354 11.2617 5.35449 9.74554 5.35449C8.22936 5.35449 7.00024 6.58361 7.00024 8.09979" stroke="#2E3777" stroke-width="1.5" stroke-linecap="round"/>
<path d="M19.8002 15.9001H17.0001M4.2002 15.9001H11.5095M11.5095 15.9001C11.5095 17.4163 12.7387 18.6454 14.2548 18.6454C15.771 18.6454 17.0001 17.4163 17.0001 15.9001M11.5095 15.9001C11.5095 14.3839 12.7387 13.1548 14.2548 13.1548C15.771 13.1548 17.0001 14.3839 17.0001 15.9001" stroke="#2E3777" stroke-width="1.5" stroke-linecap="round"/>
</svg>
