<svg width="48" height="48" viewBox="0 0 48 48" fill="none" xmlns="http://www.w3.org/2000/svg">
<path d="M43.1998 24C43.1998 34.6039 34.6037 43.2 23.9998 43.2M43.1998 24C43.1998 13.3962 34.6037 4.80005 23.9998 4.80005M43.1998 24H4.7998M23.9998 43.2C13.3959 43.2 4.7998 34.6039 4.7998 24M23.9998 43.2C19.3606 43.2 15.5998 34.6039 15.5998 24C15.5998 13.3962 19.3606 4.80005 23.9998 4.80005M23.9998 43.2C28.639 43.2 32.3998 34.6039 32.3998 24C32.3998 13.3962 28.639 4.80005 23.9998 4.80005M4.7998 24C4.7998 13.3962 13.3959 4.80005 23.9998 4.80005" stroke="#2E3777" stroke-width="2" stroke-linecap="round"/>
<path d="M24.0006 43.1999C19.3614 43.1999 15.6006 34.6038 15.6006 23.9999C15.6006 13.3961 19.3614 4.79993 24.0006 4.79993" stroke="#B52019" stroke-width="2" stroke-linejoin="round"/>
</svg>
