<svg width="60" height="59" viewBox="0 0 60 59" fill="none" xmlns="http://www.w3.org/2000/svg">
<path d="M32.9701 0.679932C32.1001 0.519932 31.2201 0.439941 30.3201 0.439941C29.4201 0.439941 28.5401 0.529932 27.6701 0.679932C12.9601 2.01993 1.44006 14.3799 1.44006 29.4299C1.44006 33.0499 2.11006 36.5199 3.33006 39.7199C3.70006 39.7899 4.19006 39.8499 4.81006 39.8499C5.00006 39.8499 5.20005 39.8399 5.40005 39.8299C4.19005 36.9199 3.46006 33.7599 3.34006 30.4399H9.55006C9.62006 33.4199 10.0301 36.2799 10.7001 38.9699C11.3101 38.8199 11.9501 38.6499 12.6201 38.4599C12.0001 35.9299 11.6201 33.2399 11.5401 30.4299H20.1601C20.1801 32.2399 20.2701 34.0599 20.4101 35.8499C21.0801 35.5899 21.7301 35.3299 22.3601 35.0799C22.2601 33.5799 22.1801 32.0399 22.1601 30.4299H31.6401C32.8401 29.6899 33.8201 29.0199 34.6201 28.4299H22.1601C22.2101 24.1599 22.5701 20.2499 23.1401 16.8399C25.4301 17.2599 27.8301 17.4799 30.3001 17.4799C32.7701 17.4799 35.1701 17.2599 37.4601 16.8399C37.7601 18.6199 38.0001 20.5499 38.1701 22.5799L40.1201 22.0499C39.9501 20.1199 39.7201 18.23 39.4101 16.42C41.6801 15.88 43.8301 15.1399 45.8101 14.2399C46.6501 15.9999 47.3301 17.9199 47.8601 19.9399L49.7801 19.42C49.2101 17.27 48.4801 15.2399 47.5801 13.3599C48.6201 12.8099 49.5801 12.1799 50.5001 11.5299C54.5101 16.0599 57.0201 21.95 57.2601 28.42H51.0501C51.0101 26.79 50.8601 25.2099 50.6401 23.6599L48.9701 26.8099C49.0101 27.3399 49.0401 27.88 49.0501 28.42H48.1201L47.0601 30.42H49.0501C48.9201 35.67 47.7401 40.5399 45.8001 44.6099C43.8201 43.7099 41.6701 42.9699 39.4001 42.4299C39.7601 40.2799 40.0101 38.0199 40.1901 35.7199C39.5601 36.3799 38.8301 37.1099 37.9901 37.8799C37.8401 39.3199 37.6601 40.7099 37.4401 42.0099C36.2001 41.7799 34.9301 41.6199 33.6401 41.5099C32.8101 42.1299 31.9101 42.7599 30.9701 43.3799C33.0701 43.4199 35.1201 43.6099 37.0801 43.9699C35.5101 51.6799 32.8001 56.4099 30.2801 56.4099C28.1301 56.4099 25.8401 52.9499 24.2401 47.1299C23.6301 47.4099 23.0101 47.69 22.3801 47.95C23.2501 51.09 24.3701 53.7499 25.7301 55.5999C22.7601 54.5299 20.0601 52.4399 17.8401 49.6099C17.1501 49.8299 16.4901 50.02 15.8401 50.2C16.9501 51.7 18.1701 53.05 19.4901 54.17C17.4101 53.26 15.4801 52.0799 13.7101 50.7099C12.8501 50.8899 12.0301 51.0299 11.2501 51.1199C15.7101 55.0299 21.3801 57.5999 27.6301 58.1599C28.5001 58.3099 29.3801 58.3999 30.2801 58.3999C31.1801 58.3999 32.0601 58.3099 32.9301 58.1599C47.6401 56.8199 59.1601 44.4599 59.1601 29.4099C59.2001 14.3699 47.6801 2.01993 32.9701 0.679932ZM19.5301 4.66995C17.3801 6.49995 15.4801 8.84992 13.9401 11.6099C13.0701 11.1499 12.2601 10.6299 11.4701 10.0999C13.8001 7.83994 16.5201 5.98995 19.5301 4.66995ZM9.55006 28.4299H3.34006C3.58006 21.9599 6.09007 16.0699 10.1001 11.5399C11.0201 12.1899 11.9801 12.8099 13.0201 13.3699C10.9501 17.7099 9.69006 22.8699 9.55006 28.4299ZM20.1801 28.4299H11.5601C11.6901 23.1799 12.8701 18.3099 14.8101 14.2399C16.7901 15.1399 18.9401 15.88 21.2101 16.42C20.5701 20.21 20.2301 24.3399 20.1801 28.4299ZM21.5701 14.4599C19.4901 13.9599 17.5301 13.2999 15.7201 12.4799C18.2501 7.98995 21.7601 4.68993 25.7701 3.23993C23.9201 5.75993 22.5101 9.75993 21.5701 14.4599ZM30.3201 15.4799C27.9701 15.4799 25.7001 15.2699 23.5201 14.8799C25.1001 7.16994 27.8001 2.43994 30.3201 2.43994C32.8401 2.43994 35.5401 7.16994 37.1201 14.8799C34.9401 15.2699 32.6701 15.4799 30.3201 15.4799ZM39.0701 14.4599C38.1301 9.76993 36.7201 5.75993 34.8701 3.23993C38.8901 4.67993 42.4001 7.98995 44.9201 12.4799C43.1101 13.29 41.1501 13.9599 39.0701 14.4599ZM46.7001 11.6099C45.1601 8.84992 43.2601 6.49995 41.1101 4.66995C44.1201 5.97995 46.8501 7.82994 49.1601 10.0899C48.3801 10.6299 47.5701 11.1499 46.7001 11.6099ZM34.8701 55.6199C36.7201 53.0999 38.1301 49.0999 39.0701 44.4099C41.1501 44.9099 43.1101 45.57 44.9201 46.39C42.4001 50.87 38.8901 54.1699 34.8701 55.6199ZM41.1101 54.1799C43.2601 52.3499 45.1601 49.9999 46.7001 47.2399C47.5701 47.6999 48.3801 48.2199 49.1701 48.7499C46.8501 51.0199 44.1201 52.8699 41.1101 54.1799ZM50.5401 47.3199C49.6201 46.6699 48.6501 46.0499 47.6101 45.4899C49.6901 41.1499 50.9501 35.9799 51.0801 30.4299H57.2901C57.0601 36.8999 54.5501 42.7899 50.5401 47.3199Z" fill="#2E3777"/>
<path d="M0.500059 37.8401C0.500059 37.8401 -2.68994 45.3201 15.0601 39.8201C32.8101 34.3201 38.8701 27.4401 38.8701 27.4401L36.8201 25.0101L49.5201 21.5601L43.2901 33.3401L41.3801 31.3101C41.3801 31.3101 33.4401 42.3101 18.3201 47.3701C3.81007 52.2301 2.43007 46.6001 1.35007 44.3501C0.260065 42.1101 -0.339941 40.2801 0.500059 37.8401Z" fill="#B52019"/>
</svg>
