<svg width="69" height="65" viewBox="0 0 69 65" fill="none" xmlns="http://www.w3.org/2000/svg">
<path d="M33.73 43.47L15 4.05005L13.8 4.62004L5.83997 8.40004L6.93997 10.71L12.86 7.90004L30.45 44.9201C31.45 44.2801 32.55 43.79 33.73 43.47Z" fill="#2E3777"/>
<path d="M48.34 50.7701L63.58 43.5301L62.06 40.3201L46.56 47.6801C47.3 48.6201 47.9 49.6501 48.34 50.7701Z" fill="#2E3777"/>
<path d="M36.97 43.0201C39.98 43.0201 42.74 44.1201 44.87 45.9201L68.46 34.7601L56.21 8.8501L26.62 22.8401L36.18 43.0601C36.45 43.0401 36.71 43.0201 36.97 43.0201Z" fill="#B52019"/>
<path d="M38.6738 0.274263L20.3135 8.95679L25.8796 20.7269L44.2398 12.0443L38.6738 0.274263Z" fill="#B52019"/>
<path d="M9.46266 5.72982L0.855164 9.82104L2.89434 14.1112L11.5018 10.02L9.46266 5.72982Z" fill="#B52019"/>
<path d="M18.6376 18.6401L17.0656 19.3857L18.8652 23.1804L20.4373 22.4348L18.6376 18.6401Z" fill="#B52019"/>
<path d="M26.5445 35.3028L24.9733 36.0503L26.7776 39.8429L28.3488 39.0954L26.5445 35.3028Z" fill="#B52019"/>
<path d="M36.97 45.72C31.71 45.72 27.44 49.99 27.44 55.25C27.44 60.51 31.71 64.78 36.97 64.78C42.23 64.78 46.5 60.51 46.5 55.25C46.5 49.98 42.24 45.72 36.97 45.72ZM36.97 62.3C33.08 62.3 29.92 59.15 29.92 55.25C29.92 51.36 33.08 48.2 36.97 48.2C40.86 48.2 44.02 51.36 44.02 55.25C44.02 59.14 40.87 62.3 36.97 62.3Z" fill="#2E3777"/>
<path d="M41.55 55.2499C41.55 57.7799 39.5 59.8299 36.97 59.8299C34.44 59.8299 32.39 57.7799 32.39 55.2499C32.39 52.7199 34.44 50.6699 36.97 50.6699C39.5 50.6699 41.55 52.7199 41.55 55.2499Z" fill="#2E3777"/>
<path d="M47.9999 34.5354L37.7486 39.4304L38.2915 40.5675L48.5428 35.6724L47.9999 34.5354Z" fill="white"/>
<path d="M35.84 32.8398L38.1 31.7598L40.51 36.8098L38.25 37.8898L35.84 32.8398ZM34.58 27.2998L34.16 32.4998L38.88 30.2398L34.58 27.2998Z" fill="white"/>
<path d="M41.8 29.9899L44.06 28.9099L46.47 33.9599L44.21 35.0399L41.8 29.9899ZM40.54 24.45L40.12 29.6499L44.84 27.3999L40.54 24.45Z" fill="white"/>
<path d="M59.03 20.4799C56.97 18.6199 53.91 18.0699 51.25 19.3399C48.59 20.6099 47.09 23.3299 47.25 26.1099L59.03 20.4799Z" fill="white"/>
<path d="M58.58 30.8901C57.59 31.3601 56.29 31.2101 55.71 30.0101C55.23 29.0101 53.11 24.5601 53.11 24.5601L54.16 24.0601C54.16 24.0601 56.28 28.5101 56.76 29.5101C57.14 30.2901 58.05 29.8601 58.08 29.8401C58.33 29.7201 58.8 29.2401 58.51 28.6401L59.55 28.1401C60.1 29.2901 59.47 30.4701 58.58 30.8901Z" fill="white"/>
</svg>
