<svg width="74" height="50" viewBox="0 0 74 50" fill="none" xmlns="http://www.w3.org/2000/svg">
<path d="M15.69 24.1899C15.85 18.5399 16.04 11.1299 16.11 7.23989C16.12 6.51989 16.19 6.1799 16.23 6.0299C16.4 5.9699 16.83 5.8699 17.74 5.8699C18.42 5.8699 19.24 5.9199 20.25 6.0299C29.13 6.9799 29.32 7.81991 29.57 8.87991C30.13 11.2799 32.49 21.4499 34.05 28.1999C34.18 28.2099 34.31 28.2099 34.45 28.2199C35.18 28.2899 35.99 28.2999 36.79 28.3199C35.24 21.5899 32.73 10.7699 32.15 8.2799C31.49 5.4599 29.95 4.4099 20.53 3.3999C14.49 2.7499 13.53 3.86989 13.46 7.17989C13.39 10.9699 13.2 18.0499 13.05 23.6199C14.02 23.7499 14.91 23.9299 15.69 24.1899Z" fill="#2E3777"/>
<path d="M18.64 26.7199C19.26 28.7999 20.72 32.2699 21.41 33.0999C21.61 33.2999 22.5 33.7799 26.48 33.7799C27.55 33.7799 28.07 33.4999 28.34 33.0999C27.7 31.3499 25.84 31.8398 23.13 32.4598C21.75 32.7798 21.14 28.3698 20.63 25.8998C19.6 20.8498 20.13 16.4699 19.9 14.9499C19.67 13.4299 17.94 13.6498 17.03 16.3598C16.66 17.4698 16.92 21.1699 17.32 24.9699C17.97 25.4199 18.42 25.9899 18.64 26.7199Z" fill="#B52019"/>
<path d="M32.75 24.72C32.24 23.82 30.36 23.91 28.54 24.92C26.72 25.94 25.65 27.49 26.16 28.4C26.52 29.04 27.58 29.17 28.82 28.83L29.45 30.14C30.2 28.99 31.31 28.47 32.4 28.28L31.84 27.1C32.69 26.27 33.1 25.34 32.75 24.72Z" fill="#B52019"/>
<path d="M15.75 41.13C15.75 43.54 13.8 45.5 11.39 45.5C8.98 45.5 7.02 43.54 7.02 41.13C7.02 38.72 8.98 36.76 11.39 36.76C13.8 36.77 15.75 38.72 15.75 41.13Z" fill="#2E3777"/>
<path d="M43.36 35.4201C42.86 33.2601 41.9 31.0801 41.21 30.6201C40.11 29.8801 36.88 30.2301 34.29 29.9901C31.69 29.7501 30.71 30.7701 30.38 32.5901C30.05 34.4101 28.87 35.5401 26.48 35.5401C24.09 35.5401 21.05 35.4201 20.05 34.2301C19.05 33.0301 17.5 29.0601 16.95 27.2301C16.24 24.8601 8.57 25.1501 5.1 25.1901C2.23 25.2301 1.28999 29.5301 1.16999 31.3701C1.04999 33.2101 0.469994 39.8001 0.469994 39.8001C0.449994 40.4101 1.38999 40.7401 2.71999 40.9201C2.71999 40.9901 2.71 41.0601 2.71 41.1401C2.71 45.9201 6.6 49.8101 11.38 49.8101C15.5 49.8101 18.95 46.9201 19.83 43.0501C21.9 43.1401 24.44 43.1901 27.58 43.1801C27.87 43.1801 28.15 43.1701 28.44 43.1701C29.36 46.9701 32.78 49.8001 36.86 49.8001C41.64 49.8001 45.53 45.9101 45.53 41.1301C45.53 38.9401 44.71 36.9501 43.36 35.4201ZM11.39 48.0401C7.57999 48.0401 4.47999 44.9401 4.47999 41.1301C4.47999 37.3201 7.57999 34.2201 11.39 34.2201C15.2 34.2201 18.3 37.3201 18.3 41.1301C18.29 44.9401 15.19 48.0401 11.39 48.0401ZM36.86 48.0401C33.05 48.0401 29.95 44.9401 29.95 41.1301C29.95 37.3201 33.05 34.2201 36.86 34.2201C40.67 34.2201 43.77 37.3201 43.77 41.1301C43.77 44.9401 40.67 48.0401 36.86 48.0401Z" fill="#2E3777"/>
<path d="M41.39 41.1299C41.39 43.6299 39.36 45.6599 36.86 45.6599C34.36 45.6599 32.33 43.6299 32.33 41.1299C32.33 38.6299 34.36 36.5999 36.86 36.5999C39.36 36.5999 41.39 38.6299 41.39 41.1299Z" fill="#2E3777"/>
<path d="M38.4144 0.811858L35.7338 1.58496L47.9151 43.8217L50.5957 43.0486L38.4144 0.811858Z" fill="#2E3777"/>
<path d="M69.5929 35.6388L47.4273 42.0361L47.9431 43.8232L70.1087 37.4259L69.5929 35.6388Z" fill="#2E3777"/>
<path d="M68.2545 15.6895L46.3771 22.0037L51.2243 38.7984L73.1017 32.4843L68.2545 15.6895Z" fill="#B52019"/>
<path d="M56.8486 5.7292L42.869 9.76392L45.9249 20.3519L59.9045 16.3172L56.8486 5.7292Z" fill="#B52019"/>
</svg>
