<svg width="43" height="67" viewBox="0 0 43 67" fill="none" xmlns="http://www.w3.org/2000/svg">
<path d="M32.05 22.98C35.69 22.6 37.12 24.01 37.34 27.08C40.28 26.07 42.56 25.29 42.56 25.29L37.21 10.47L20.53 16.08C21.49 19.11 22.38 21.49 23.38 24.27C24.5 24.08 28.98 23.3 32.05 22.98Z" fill="#B52019"/>
<path d="M36.31 26.5302C35.96 24.6302 34.14 23.3802 32.23 23.7202L23.91 25.2502L19.23 19.0302C18.71 16.8402 16.76 15.2002 14.41 15.1802C14.4 15.1802 14.39 15.1802 14.38 15.1802C11.63 15.1802 9.4 17.4002 9.38 20.1502L9.24999 37.8202C9.22999 40.4802 11.3 41.9502 13.92 44.2702L21.33 50.9102L22.95 62.6802C23.19 64.4302 24.69 65.7002 26.41 65.7002C26.57 65.7002 26.73 65.6902 26.89 65.6702C28.8 65.4102 30.14 63.6402 29.88 61.7202L28.08 48.6802C27.97 47.8602 27.57 47.1102 26.95 46.5502L19.21 39.6102C19.22 39.5102 19.24 39.4202 19.24 39.3302L19.28 32.9202C19.07 32.5702 16.42 28.1902 14.87 24.8902L19.61 31.1902C20.28 32.0802 21.32 32.5902 22.41 32.5902C22.62 32.5902 22.83 32.5702 23.04 32.5302L33.48 30.6102C35.4 30.2602 36.66 28.4302 36.31 26.5302Z" fill="#2E3777"/>
<path d="M8.92001 41.9402L0.459999 61.1002C-0.320001 62.8702 0.479992 64.9302 2.24999 65.7202C2.70999 65.9202 3.19 66.0202 3.66 66.0202C5 66.0202 6.28999 65.2402 6.86999 63.9302L14.4 46.8602C12.9 45.7502 10.61 43.9102 8.92001 41.9402Z" fill="#2E3777"/>
<path d="M14.13 14.6602C14.23 14.6702 14.34 14.6702 14.44 14.6702C18.05 14.6702 21.01 11.8402 21.18 8.24017C21.22 7.36017 21.09 6.5102 20.81 5.7002L8.03 10.0302C8.32 10.9202 8.80001 11.7602 9.45001 12.4702C10.67 13.8002 12.33 14.5802 14.13 14.6602Z" fill="#2E3777"/>
<path d="M23.86 3.74004L7.66 9.22005C7.66 9.22005 6.24998 4.67007 9.35998 2.64007C11.88 0.990066 14.44 0.440037 16.7 1.11004C18.75 1.72004 20.02 3.51006 20.02 3.51006C20.02 3.51006 23.87 2.75007 24.12 2.89007C24.86 3.30007 24.14 3.58004 23.86 3.74004Z" fill="#B52019"/>
</svg>
