<svg width="24" height="24" viewBox="0 0 24 24" fill="none" xmlns="http://www.w3.org/2000/svg">
<path d="M1.56006 3.6001V2.6001H0.560026L0.560059 3.60013L1.56006 3.6001ZM11.8672 13.9072C12.2577 13.5167 12.2577 12.8835 11.8672 12.493C11.4767 12.1024 10.8435 12.1024 10.453 12.493L11.8672 13.9072ZM1.56006 22.8001L0.560059 22.8001L0.560053 23.8001H1.56006V22.8001ZM20.7601 22.8001V23.8001H21.7601V22.8001H20.7601ZM1.56014 6.98833L2.56014 6.98834V6.98833H1.56014ZM10.5954 4.6001H11.5954V2.6001H10.5954V4.6001ZM21.7601 14.3295V13.3295H19.7601V14.3295H21.7601ZM10.453 12.493L0.852952 22.093L2.26717 23.5072L11.8672 13.9072L10.453 12.493ZM20.7601 21.8001H1.56006V23.8001H20.7601V21.8001ZM2.56006 22.8001L2.56014 6.98834L0.560142 6.98833L0.560059 22.8001L2.56006 22.8001ZM4.94838 2.6001H1.56006V4.6001H4.94838V2.6001ZM1.56006 3.6001C0.560059 3.60013 0.560059 3.60014 0.560059 3.60016C0.560059 3.60018 0.560059 3.60021 0.560059 3.60025C0.560059 3.60032 0.560059 3.60044 0.560059 3.6006C0.560059 3.60091 0.560059 3.60137 0.560059 3.60198C0.560059 3.60322 0.560059 3.60505 0.560059 3.60748C0.560059 3.61234 0.560059 3.61956 0.56006 3.62902C0.56006 3.64793 0.560061 3.67577 0.560062 3.7115C0.560064 3.78297 0.560068 3.886 0.560072 4.01224C0.560079 4.26472 0.56009 4.61005 0.5601 4.98144C0.560121 5.72424 0.560142 6.57128 0.560142 6.98833H2.56014C2.56014 6.57124 2.56012 5.72417 2.5601 4.98138C2.56009 4.60999 2.56008 4.26466 2.56007 4.01218C2.56007 3.88594 2.56006 3.78291 2.56006 3.71144C2.56006 3.67571 2.56006 3.64786 2.56006 3.62895C2.56006 3.6195 2.56006 3.61228 2.56006 3.60742C2.56006 3.60499 2.56006 3.60315 2.56006 3.60192C2.56006 3.6013 2.56006 3.60084 2.56006 3.60053C2.56006 3.60038 2.56006 3.60026 2.56006 3.60018C2.56006 3.60014 2.56006 3.60011 2.56006 3.60009C2.56006 3.60007 2.56006 3.60007 1.56006 3.6001ZM4.94838 4.6001H10.5954V2.6001H4.94838V4.6001ZM19.7601 14.3295V22.8001H21.7601V14.3295H19.7601ZM21.4672 22.093L2.26716 2.89299L0.852953 4.30721L20.053 23.5072L21.4672 22.093Z" fill="#2E3777"/>
<path d="M18.6003 10.8002L17.9441 11.5548L18.6003 12.1254L19.2564 11.5548L18.6003 10.8002ZM17.6003 5.04019C17.6003 5.59248 18.048 6.04019 18.6003 6.04019C19.1525 6.04019 19.6003 5.59248 19.6003 5.04019H17.6003ZM19.6003 4.96801C19.6003 4.41572 19.1525 3.96801 18.6003 3.96801C18.048 3.96801 17.6003 4.41572 17.6003 4.96801H19.6003ZM21.4403 4.95672C21.4403 5.34476 21.2849 5.85138 20.9608 6.45033C20.6439 7.03589 20.2087 7.63133 19.7532 8.17603C19.3004 8.71741 18.8447 9.18821 18.501 9.52449C18.3297 9.69203 18.1877 9.82472 18.0897 9.91448C18.0408 9.95933 18.0029 9.99336 17.978 10.0156C17.9656 10.0267 17.9563 10.0348 17.9506 10.0399C17.9477 10.0424 17.9457 10.0441 17.9446 10.0451C17.9441 10.0456 17.9438 10.0459 17.9437 10.0459C17.9436 10.046 17.9436 10.046 17.9437 10.0459C17.9437 10.0459 17.9438 10.0458 17.9438 10.0458C17.944 10.0457 17.9441 10.0456 18.6003 10.8002C19.2564 11.5548 19.2566 11.5547 19.2568 11.5545C19.2568 11.5545 19.257 11.5543 19.2572 11.5542C19.2575 11.5539 19.2578 11.5536 19.2582 11.5532C19.2591 11.5525 19.2601 11.5516 19.2614 11.5504C19.264 11.5482 19.2675 11.5451 19.2719 11.5412C19.2807 11.5335 19.2931 11.5226 19.3088 11.5086C19.3401 11.4807 19.3847 11.4405 19.4408 11.3892C19.5528 11.2865 19.7108 11.1388 19.8995 10.9542C20.2758 10.5861 20.7801 10.0656 21.2873 9.45914C21.7918 8.85602 22.3166 8.1471 22.7197 7.40223C23.1156 6.67075 23.4403 5.82084 23.4403 4.95672H21.4403ZM18.6003 10.8002C19.2564 10.0456 19.2566 10.0457 19.2567 10.0458C19.2567 10.0458 19.2568 10.0459 19.2568 10.0459C19.2569 10.046 19.2569 10.046 19.2568 10.0459C19.2567 10.0459 19.2564 10.0456 19.2559 10.0451C19.2548 10.0441 19.2528 10.0424 19.2499 10.0399C19.2442 10.0348 19.235 10.0267 19.2225 10.0156C19.1976 9.99336 19.1597 9.95933 19.1108 9.91448C19.0128 9.82472 18.8708 9.69203 18.6995 9.52449C18.3558 9.18821 17.9001 8.71741 17.4473 8.17603C16.9918 7.63133 16.5566 7.03589 16.2397 6.45033C15.9156 5.85138 15.7603 5.34476 15.7603 4.95672H13.7603C13.7603 5.82084 14.0849 6.67075 14.4808 7.40223C14.8839 8.1471 15.4087 8.85602 15.9132 9.45914C16.4204 10.0656 16.9247 10.5861 17.301 10.9542C17.4897 11.1388 17.6477 11.2865 17.7597 11.3892C17.8158 11.4405 17.8604 11.4807 17.8918 11.5086C17.9074 11.5226 17.9198 11.5335 17.9286 11.5412C17.933 11.5451 17.9365 11.5482 17.9391 11.5504C17.9404 11.5516 17.9414 11.5525 17.9423 11.5532C17.9427 11.5536 17.9431 11.5539 17.9434 11.5542C17.9435 11.5543 17.9437 11.5545 17.9438 11.5545C17.9439 11.5547 17.9441 11.5548 18.6003 10.8002ZM15.7603 4.95672C15.7603 3.45494 17.0109 2.2002 18.6003 2.2002V0.200195C15.948 0.200195 13.7603 2.30916 13.7603 4.95672H15.7603ZM18.6003 2.2002C20.1896 2.2002 21.4403 3.45494 21.4403 4.95672H23.4403C23.4403 2.30916 21.2525 0.200195 18.6003 0.200195V2.2002ZM19.6003 5.04019V4.96801H17.6003V5.04019H19.6003Z" fill="#B52019"/>
</svg>
