<svg width="62" height="52" viewBox="0 0 62 52" fill="none" xmlns="http://www.w3.org/2000/svg">
<path d="M7.34001 42.5L0.27002 37.7V4.78998L7.34001 -0.0100098V42.5Z" fill="#B52019"/>
<path d="M42.83 8.11987L24.62 9.51988C24.62 9.51988 25 20.5999 25.32 28.2899C25.8 39.8999 28.94 48.3199 41.83 51.5899C42.16 51.6699 43.42 51.6899 43.71 51.6199C56.7 48.3699 59.86 39.9399 60.34 28.2899C60.66 20.5999 61.04 9.51988 61.04 9.51988L42.83 8.11987ZM58.65 28.2199C58.2 39.0699 55.43 46.9299 43.36 49.9699C43.26 49.9799 43.11 49.9799 42.96 49.9799C42.56 49.9799 42.25 49.9599 42.18 49.9399C30.21 46.8999 27.44 39.0599 27 28.2199C26.76 22.3499 26.47 14.4299 26.36 11.0699L42.84 9.79988L59.31 11.0699C59.18 14.4299 58.9 22.3499 58.65 28.2199Z" fill="#2E3777"/>
<path d="M42.58 11.51L28.09 12.63C28.23 16.5 28.47 23.09 28.68 28.16C29.11 38.5 31.57 45.48 42.48 48.29C42.51 48.29 42.55 48.29 42.59 48.3V11.51H42.58Z" fill="#2E3777"/>
<path d="M23.64 28.36C23.33 20.75 22.94 9.69 22.94 9.58C22.91 8.68 23.59 7.91001 24.49 7.85001L42.66 6.45C42.72 6.44 42.77 6.44 42.83 6.44C42.87 6.44 42.92 6.44 42.96 6.44L51.49 7.10001V0H9.04001V42.51H26.64C24.49 38.28 23.84 33.35 23.64 28.36Z" fill="#B52019"/>
</svg>
