<svg width="81" height="60" viewBox="0 0 81 60" fill="none" xmlns="http://www.w3.org/2000/svg">
<path d="M22.9 59.5701L16 54.8801V22.7401L22.9 18.05V59.5701Z" fill="#B52019"/>
<path d="M80.53 14.9501L44.97 0.0900879H44.96H44.95L9.39 14.9501L10.14 16.7501L44.96 2.20009L79.78 16.7501L80.53 14.9501Z" fill="#B52019"/>
<path d="M35.6 10.7201L0.190002 25.5101L9.67999 17.8401L43.87 3.57007L35.6 10.7201Z" fill="#2E3777"/>
<path d="M9.09 17.19L8.49001 15.48L0.190002 23.52V24.92L9.09 17.19Z" fill="#B52019"/>
<path d="M45.43 3.33008L36.45 11.2601L50.07 17.1201H66.46V24.1601L69.6 25.5101L78.89 17.3701L45.43 3.33008Z" fill="#2E3777"/>
<path d="M65.53 18.05H24.07V59.56H65.53V18.05Z" fill="#B52019"/>
<path d="M42.59 44.3401H31.23V45.6101H42.59V44.3401Z" fill="white"/>
<path d="M32.35 37.56H34.85V43.16H32.35V37.56ZM33.6 32.02L30.98 36.53H36.21L33.6 32.02Z" fill="white"/>
<path d="M38.96 37.56H41.46V43.16H38.96V37.56ZM40.21 32.02L37.59 36.53H42.82L40.21 32.02Z" fill="white"/>
<path d="M58.6 36.4C57.55 33.83 55.02 32.02 52.07 32.02C49.12 32.02 46.6 33.83 45.54 36.4H58.6Z" fill="white"/>
<path d="M53.71 45.6001C52.62 45.6001 51.51 44.9 51.5 43.58C51.5 42.47 51.5 37.54 51.5 37.54H52.66C52.66 37.54 52.66 42.47 52.66 43.58C52.66 44.44 53.67 44.45 53.71 44.45C53.99 44.45 54.61 44.22 54.61 43.55H55.77C55.77 44.81 54.7 45.6001 53.71 45.6001Z" fill="white"/>
</svg>
