<svg width="85" height="38" viewBox="0 0 85 38" fill="none" xmlns="http://www.w3.org/2000/svg">
<path d="M76.3401 23.2899V21.4899H83.8901C84.2001 20.5499 84.3401 19.9699 84.3401 19.9699C84.5401 18.9699 83.8601 18.1499 82.8401 18.1499C82.8401 18.1499 69.1701 18.1499 64.6101 18.1499C63.5701 18.1499 63.1201 18.7099 62.9001 19.2299C62.2601 20.7199 60.8801 23.2399 60.1001 24.4799C59.0301 26.1899 55.4601 25.8599 37.1301 26.0899C26.5101 26.2199 22.3601 26.3399 19.5901 26.2599C18.1101 26.2199 17.3401 26.0699 17.0501 25.6099C16.8101 25.2299 16.8001 24.7899 16.7301 24.1499C16.5501 22.5599 16.5001 22.0299 16.5001 22.0299C16.4101 21.0099 15.4901 20.1799 14.4701 20.1799H2.89006C1.87006 20.1799 0.890067 20.7799 0.940067 21.7899C0.970067 22.4299 1.03006 22.9999 1.84006 24.4699C3.09006 26.7299 4.39007 26.7699 4.86007 32.0299C5.01007 33.7399 5.11006 34.8999 5.18006 35.6799C5.32006 37.2899 6.27007 37.5499 6.85007 37.6399C7.49007 37.7399 8.16007 37.7999 8.69007 37.7999C8.69007 37.7999 54.7601 37.7999 62.4201 37.7999C70.0801 37.7999 72.1401 37.1299 77.0101 32.8199C80.1901 29.9999 82.1601 26.0699 83.2501 23.2999H76.3401V23.2899ZM26.1701 30.2099C25.5901 30.2099 25.1201 29.7399 25.1201 29.1599C25.1201 28.5799 25.5901 28.1099 26.1701 28.1099C26.7501 28.1099 27.2101 28.5799 27.2101 29.1599C27.2201 29.7399 26.7501 30.2099 26.1701 30.2099ZM32.1901 30.2099C31.6101 30.2099 31.1501 29.7399 31.1501 29.1599C31.1501 28.5799 31.6201 28.1099 32.1901 28.1099C32.7701 28.1099 33.2401 28.5799 33.2401 29.1599C33.2401 29.7399 32.7701 30.2099 32.1901 30.2099ZM38.2101 30.2099C37.6301 30.2099 37.1601 29.7399 37.1601 29.1599C37.1601 28.5799 37.6301 28.1099 38.2101 28.1099C38.7901 28.1099 39.2601 28.5799 39.2601 29.1599C39.2601 29.7399 38.7901 30.2099 38.2101 30.2099ZM44.2301 30.2099C43.6501 30.2099 43.1801 29.7399 43.1801 29.1599C43.1801 28.5799 43.6501 28.1099 44.2301 28.1099C44.8101 28.1099 45.2701 28.5799 45.2701 29.1599C45.2701 29.7399 44.8101 30.2099 44.2301 30.2099ZM50.2401 30.2099C49.6601 30.2099 49.1901 29.7399 49.1901 29.1599C49.1901 28.5799 49.6601 28.1099 50.2401 28.1099C50.8201 28.1099 51.2901 28.5799 51.2901 29.1599C51.2901 29.7399 50.8201 30.2099 50.2401 30.2099ZM56.2601 30.2099C55.6801 30.2099 55.2101 29.7399 55.2101 29.1599C55.2101 28.5799 55.6801 28.1099 56.2601 28.1099C56.8401 28.1099 57.3101 28.5799 57.3101 29.1599C57.3101 29.7399 56.8401 30.2099 56.2601 30.2099Z" fill="#2E3777"/>
<path d="M62.3 17.4398L62.23 16.5198H69.2V14.2598H59.8V20.2398H61C61.67 18.9698 62.22 17.8198 62.3 17.4398Z" fill="#B52019"/>
<path d="M58.7 7.07983H49.3V13.0598H58.7V7.07983Z" fill="#B52019"/>
<path d="M60.3601 21.4299H59.8101V22.4199C59.9901 22.0999 60.1801 21.7599 60.3601 21.4299Z" fill="#B52019"/>
<path d="M79.72 14.2498H70.3201V16.5098H79.72V14.2498Z" fill="#B52019"/>
<path d="M69.2101 7.07983H59.8101V13.0598H69.2101V7.07983Z" fill="#B52019"/>
<path d="M48.2 14.2498H38.8V20.2298H48.2V14.2498Z" fill="#B52019"/>
<path d="M42.75 24.3799C44.79 24.3599 46.59 24.3399 48.2 24.3099V21.4299H38.8V24.4299L42.75 24.3799Z" fill="#B52019"/>
<path d="M58.7 23.6599V21.4299H49.3V24.2999C54.68 24.2099 57.54 24.0699 58.7 23.6599Z" fill="#B52019"/>
<path d="M58.7 14.2498H49.3V20.2298H58.7V14.2498Z" fill="#B52019"/>
<path d="M20.8801 5.43988V2.89988H23.94V2.73988C23.94 1.71988 23.1 0.879883 22.08 0.879883H11.6001C10.5801 0.879883 9.74005 1.71988 9.74005 2.73988V2.89988H11.69V4.29988H9.74005V9.82988H23.94V5.44988H20.8801V5.43988ZM15.5701 4.29988H13.0201V2.89988H15.5701V4.29988ZM19.45 4.29988H16.9V2.89988H19.45V4.29988Z" fill="#2E3777"/>
<path d="M26.5601 16.24V13.06H30.2401C30.2401 12.04 29.4001 11.21 28.3801 11.21H7.83006C6.81006 11.21 5.97006 12.04 5.97006 13.06H10.0001V14.81H5.97006V16.69C5.97006 17.71 6.81006 18.55 7.83006 18.55H15.9001C17.3201 18.54 17.7401 18.79 17.8401 19.48C17.9101 19.94 17.9101 20.23 18.0101 21.24C18.0101 21.24 18.0801 21.97 18.1701 22.78C18.2601 23.59 18.7101 24.24 19.2901 24.28C20.3901 24.36 21.2601 24.43 22.2801 24.43H28.3801C29.4001 24.43 30.2401 23.6 30.2401 22.57V16.23H26.5601V16.24ZM15.0801 14.81H11.8901V13.06H15.0801V14.81ZM19.9301 14.81H16.7401V13.06H19.9301V14.81ZM24.7701 14.81H21.5801V13.06H24.7701V14.81Z" fill="#2E3777"/>
</svg>
