<svg width="41" height="67" viewBox="0 0 41 67" fill="none" xmlns="http://www.w3.org/2000/svg">
<path d="M24.61 27.1201C25.04 27.2901 25.48 27.3801 25.92 27.3801C27.08 27.3801 28.19 26.8101 28.86 25.7901L34.06 17.7901C35.11 16.1701 34.65 14.0001 33.03 12.9501C31.41 11.9001 29.24 12.3501 28.19 13.9801L24.56 19.5601L18.09 16.9401C17.23 16.2201 16.14 15.7601 14.92 15.7501C14.91 15.7501 14.9 15.7501 14.89 15.7501C12.14 15.7501 9.91 17.9701 9.89 20.7201L9.77998 37.7001C9.77998 37.7001 9.78999 37.7001 9.78999 37.7101C9.64999 39.2101 9.98997 40.8601 10.86 41.6301L21.85 51.4701L23.47 63.2401C23.71 64.9901 25.21 66.2601 26.93 66.2601C27.09 66.2601 27.25 66.2501 27.41 66.2301C29.32 65.9701 30.66 64.2001 30.4 62.2801L28.6 49.2401C28.49 48.4201 28.09 47.6701 27.47 47.1101L19.73 40.1801C19.74 40.0801 19.76 39.9901 19.76 39.8901L19.85 26.7601C17.47 25.4301 14.6 23.7101 13.38 22.5601C13.41 22.5701 13.43 22.5901 13.45 22.6001L24.61 27.1201Z" fill="#2E3777"/>
<path d="M14.65 15.22C14.75 15.23 14.86 15.23 14.96 15.23C18.57 15.23 21.53 12.4 21.7 8.80002C21.87 5.08002 18.99 1.92003 15.27 1.75003C11.54 1.59003 8.39001 4.46002 8.22001 8.18002C8.14001 9.98002 8.76001 11.71 9.97001 13.04C11.19 14.35 12.85 15.14 14.65 15.22Z" fill="#2E3777"/>
<path d="M9.45 42.5L0.98998 61.67C0.20998 63.44 1.00999 65.5 2.77999 66.29C3.23999 66.49 3.71999 66.59 4.18999 66.59C5.52999 66.59 6.82 65.81 7.39 64.5L14.92 47.43C13.43 46.31 11.13 44.47 9.45 42.5Z" fill="#2E3777"/>
<path d="M24.59 11.39C24.59 11.39 23.5 11.52 23.18 10.19C22.86 8.86003 23.88 8.44003 23.88 8.44003L24.59 11.39ZM39.81 7.61002C39.81 7.61002 40.92 7.19003 40.61 5.94003C40.31 4.69003 39.14 4.84003 39.14 4.84003L39.81 7.61002ZM26.7 7.10004L24.49 7.64005L25.49 11.76L27.7 11.22L26.7 7.10004ZM37.2 0.280029C37.2 0.280029 31.2 6.03004 29.89 6.35004C28.58 6.67004 27.69 6.88004 27.69 6.88004L28.68 10.97C28.68 10.97 29.57 10.76 30.89 10.44C32.2 10.12 40.17 12.49 40.17 12.49L37.2 0.280029ZM28.31 13.23C28.89 12.27 30.16 12.19 30.16 12.19L29.71 11.29C29.71 11.29 27.48 11.83 27.28 11.81C27.27 11.81 27.73 14.2 28.31 13.23Z" fill="#B52019"/>
</svg>
