<svg width="48" height="48" viewBox="0 0 48 48" fill="none" xmlns="http://www.w3.org/2000/svg">
<path d="M42.191 25.2C42.191 35.8039 33.5949 44.4 22.991 44.4C12.3871 44.4 3.79102 35.8039 3.79102 25.2C3.79102 14.5961 12.3871 6 22.991 6M32.591 25.2C32.591 30.5019 28.2929 34.8 22.991 34.8C17.6891 34.8 13.391 30.5019 13.391 25.2C13.391 19.8981 17.6891 15.6 22.991 15.6" stroke="#2E3777" stroke-width="2" stroke-linecap="square"/>
<path d="M31.4765 16.3277L22.9912 24.813M44.2085 10.3882L36.5717 18.025L31.4805 16.3279L29.7835 11.2367L37.4202 3.59998L38.2688 9.53967L44.2085 10.3882Z" stroke="#B52019" stroke-width="2" stroke-linecap="square"/>
</svg>
