<svg width="50" height="73" viewBox="0 0 50 73" fill="none" xmlns="http://www.w3.org/2000/svg">
<path d="M24.97 72.2602C11.22 72.2602 0.0400085 61.0801 0.0400085 47.3301C0.0400085 33.5801 11.22 22.4001 24.97 22.4001C38.72 22.4001 49.9 33.5801 49.9 47.3301C49.9 61.0801 38.71 72.2602 24.97 72.2602ZM24.97 25.2202C12.78 25.2202 2.86001 35.1401 2.86001 47.3301C2.86001 59.5201 12.78 69.4402 24.97 69.4402C37.16 69.4402 47.08 59.5201 47.08 47.3301C47.08 35.1401 37.16 25.2202 24.97 25.2202Z" fill="#2E3777"/>
<path d="M24.97 53.5301C21.55 53.5301 18.78 50.7501 18.78 47.3401C18.78 43.9201 21.56 41.1401 24.97 41.1401C28.39 41.1401 31.16 43.9201 31.16 47.3401C31.16 50.7501 28.38 53.5301 24.97 53.5301ZM24.97 43.0201C22.59 43.0201 20.66 44.9501 20.66 47.3301C20.66 49.7101 22.59 51.6401 24.97 51.6401C27.35 51.6401 29.28 49.7001 29.28 47.3301C29.28 44.9501 27.35 43.0201 24.97 43.0201Z" fill="#2E3777"/>
<path d="M24.97 49.5801C23.73 49.5801 22.72 48.5701 22.72 47.3301C22.72 46.0901 23.73 45.0801 24.97 45.0801C26.21 45.0801 27.22 46.0901 27.22 47.3301C27.22 48.5701 26.21 49.5801 24.97 49.5801Z" fill="#2E3777"/>
<path d="M24.97 20.4101C19.51 20.4101 15.06 15.9701 15.06 10.5001C15.06 5.04009 19.5 0.590088 24.97 0.590088C30.44 0.590088 34.88 5.03009 34.88 10.5001C34.87 15.9601 30.43 20.4101 24.97 20.4101ZM24.97 2.4801C20.55 2.4801 16.95 6.0801 16.95 10.5101C16.95 14.9301 20.55 18.5401 24.97 18.5401C29.39 18.5401 32.99 14.9401 32.99 10.5101C32.99 6.0801 29.39 2.4801 24.97 2.4801Z" fill="#2E3777"/>
<path d="M26.98 15.9001H22.95V23.6902H26.98V15.9001Z" fill="#B52019"/>
<path d="M28.93 12.96H21V16.36H28.93V12.96Z" fill="#B52019"/>
<path d="M29.98 21.51H19.82V24.12H29.98V21.51Z" fill="#2E3777"/>
<path d="M8.98328 22.8876L4.37256 26.7578L6.62914 29.4461L11.2399 25.5759L8.98328 22.8876Z" fill="#B52019"/>
<path d="M40.9524 22.9191L38.6954 25.6074L43.3061 29.4783L45.5631 26.79L40.9524 22.9191Z" fill="#B52019"/>
<path d="M23.79 26.8401H26.74V31.3201H23.79V26.8401ZM23.79 67.7801H26.74V63.3001H23.79V67.7801ZM4.80002 48.7801H9.28002V45.8301H4.80002V48.7801ZM41.25 45.8301V48.7801H45.73V45.8301H41.25Z" fill="#2E3777"/>
<path d="M20.7841 27.3193L19.1326 27.7627L20.2943 32.0895L21.9458 31.6461L20.7841 27.3193Z" fill="#B52019"/>
<path d="M30.2229 62.5324L28.5709 62.9739L29.7276 67.302L31.3797 66.8605L30.2229 62.5324Z" fill="#B52019"/>
<path d="M15.7664 29.134L14.2852 29.9883L16.5234 33.8689L18.0046 33.0146L15.7664 29.134Z" fill="#B52019"/>
<path d="M33.9831 60.7154L32.502 61.5701L34.7411 65.4502L36.2221 64.5955L33.9831 60.7154Z" fill="#B52019"/>
<path d="M11.3974 32.2256L10.1876 33.4341L13.3536 36.6037L14.5635 35.3952L11.3974 32.2256Z" fill="#B52019"/>
<path d="M37.1727 58.0101L35.9631 59.2188L39.1295 62.3879L40.3392 61.1793L37.1727 58.0101Z" fill="#B52019"/>
<path d="M7.97672 36.34L7.12189 37.821L11.002 40.0606L11.8569 38.5796L7.97672 36.34Z" fill="#B52019"/>
<path d="M39.5415 54.5632L38.6867 56.0442L42.5668 58.2837L43.4216 56.8027L39.5415 54.5632Z" fill="#B52019"/>
<path d="M5.70777 41.1854L5.26642 42.8374L9.59453 43.9937L10.0359 42.3417L5.70777 41.1854Z" fill="#B52019"/>
<path d="M40.932 50.6147L40.4893 52.2664L44.8165 53.4262L45.2592 51.7745L40.932 50.6147Z" fill="#B52019"/>
<path d="M9.60633 50.6024L5.28088 51.7686L5.72599 53.4196L10.0514 52.2534L9.60633 50.6024Z" fill="#B52019"/>
<path d="M44.8087 41.19L40.4815 42.3499L40.9242 44.0016L45.2515 42.8417L44.8087 41.19Z" fill="#B52019"/>
<path d="M11.0045 54.5645L7.12793 56.8103L7.98515 58.29L11.8617 56.0441L11.0045 54.5645Z" fill="#B52019"/>
<path d="M42.5605 36.3447L38.6803 38.5842L39.5352 40.0653L43.4153 37.8257L42.5605 36.3447Z" fill="#B52019"/>
<path d="M13.3747 58.0203L10.2105 61.1921L11.4212 62.3999L14.5854 59.2281L13.3747 58.0203Z" fill="#B52019"/>
<path d="M39.1373 32.2301L35.9695 35.3979L37.1786 36.6071L40.3464 33.4393L39.1373 32.2301Z" fill="#B52019"/>
<path d="M16.5258 60.7135L14.2889 64.595L15.7705 65.4488L18.0073 61.5673L16.5258 60.7135Z" fill="#B52019"/>
<path d="M34.7715 29.1668L32.5333 33.0479L34.0147 33.9022L36.2529 30.0211L34.7715 29.1668Z" fill="#B52019"/>
<path d="M20.2848 62.5511L19.132 66.8801L20.7844 67.3201L21.9371 62.9911L20.2848 62.5511Z" fill="#B52019"/>
<path d="M29.7223 27.3386L28.5646 31.6663L30.2165 32.1081L31.3741 27.7804L29.7223 27.3386Z" fill="#B52019"/>
<path d="M33.3886 30.6883L26.5732 42.5146L28.7738 43.7829L35.5893 31.9565L33.3886 30.6883Z" fill="#2E3777"/>
</svg>
