<svg width="51" height="65" viewBox="0 0 51 65" fill="none" xmlns="http://www.w3.org/2000/svg">
<path d="M12.13 4.1299L10.25 5.4199L10.26 5.4299H10.25L11.93 6.8699L12.47 7.3399C13.43 7.1999 14.42 7.0899 15.45 6.9999L13.8 5.5799L18.48 2.3399H32.23L36.91 5.5799L35.26 6.9999C36.3 7.0899 37.29 7.1999 38.25 7.3399L38.79 6.8799L40.47 5.4399H40.46L40.47 5.4299L38.6 4.1399H38.59L36 2.3399H41.56V0.399902H9.17001V2.3399H14.73L12.13 4.1299Z" fill="#2E3777"/>
<path d="M47.82 39.2099V16.6999C47.82 13.4999 45.12 10.6199 42 9.90989C38.55 9.12989 34.96 8.73989 30.23 8.59989C29.31 6.83989 27.48 5.63989 25.36 5.63989C23.24 5.63989 21.41 6.83989 20.49 8.59989C15.77 8.73989 12.23 9.12989 8.72 9.90989C5.6 10.6099 2.89999 13.4999 2.89999 16.6999V39.2099C2.18999 40.0599 1.74001 41.1499 1.74001 42.3399C1.74001 43.5399 2.18999 44.6199 2.89999 45.4699V49.9099L25.51 51.8499L47.82 49.9099V45.4699C48.53 44.6199 48.98 43.5299 48.98 42.3399C48.98 41.1399 48.53 40.0599 47.82 39.2099ZM25.36 7.5799C27.32 7.5799 28.91 9.16989 28.91 11.1299C28.91 13.0899 27.32 14.6799 25.36 14.6799C23.4 14.6799 21.81 13.0899 21.81 11.1299C21.81 9.17989 23.4 7.5799 25.36 7.5799ZM6.66 45.3199C5.02 45.3199 3.67999 43.9899 3.67999 42.3399C3.67999 40.6999 5.01 39.3599 6.66 39.3599C8.3 39.3599 9.63 40.6899 9.63 42.3399C9.64001 43.9799 8.3 45.3199 6.66 45.3199ZM17.14 27.0999C11.15 27.3099 5.79001 27.6399 5.79001 27.6399V20.0799C5.79001 18.7499 7.40999 17.3599 9.32999 17.0299C13.28 16.3499 17.3 16.0599 23.72 16.0299V23.8299H20.95C19.03 23.8199 17.43 25.2499 17.14 27.0999ZM19.77 47.5199H19.12C18.46 47.5199 18.52 46.9299 18.52 46.2099V44.9199C18.52 44.1999 18.46 43.6099 19.12 43.6099H19.77C20.43 43.6099 20.37 44.1999 20.37 44.9199V46.2099C20.37 46.9299 20.43 47.5199 19.77 47.5199ZM22.49 47.5199H21.84C21.18 47.5199 21.24 46.9299 21.24 46.2099V44.9199C21.24 44.1999 21.18 43.6099 21.84 43.6099H22.49C23.15 43.6099 23.09 44.1999 23.09 44.9199V46.2099C23.09 46.9299 23.15 47.5199 22.49 47.5199ZM25.91 47.5199H24.82C23.71 47.5199 23.81 46.5299 23.81 45.3099V43.1399C23.81 41.9299 23.71 40.9299 24.82 40.9299H25.91C27.02 40.9299 26.92 41.9199 26.92 43.1399V45.3099C26.92 46.5199 27.02 47.5199 25.91 47.5199ZM28.88 47.5199H28.23C27.57 47.5199 27.63 46.9299 27.63 46.2099V44.9199C27.63 44.1999 27.57 43.6099 28.23 43.6099H28.88C29.54 43.6099 29.48 44.1999 29.48 44.9199V46.2099C29.48 46.9299 29.54 47.5199 28.88 47.5199ZM20.96 31.5499C19.89 31.5499 19.02 30.6799 19.02 29.6099V27.6999C19.02 26.6299 19.89 25.7599 20.96 25.7599H29.77C30.84 25.7599 31.71 26.6299 31.71 27.6999V29.6099C31.71 30.6799 30.84 31.5499 29.77 31.5499H20.96ZM31.6 47.5199H30.95C30.29 47.5199 30.35 46.9299 30.35 46.2099V44.9199C30.35 44.1999 30.29 43.6099 30.95 43.6099H31.6C32.26 43.6099 32.2 44.1999 32.2 44.9199V46.2099C32.2 46.9299 32.26 47.5199 31.6 47.5199ZM29.77 23.8199H27V16.0199C33.43 16.0599 37.44 16.3399 41.39 17.0199C43.31 17.3499 44.93 18.7499 44.93 20.0699V27.6299C44.93 27.6299 39.57 27.2999 33.58 27.0899C33.29 25.2499 31.7 23.8199 29.77 23.8199ZM44.07 45.3199C42.43 45.3199 41.09 43.9899 41.09 42.3399C41.09 40.6999 42.42 39.3599 44.07 39.3599C45.71 39.3599 47.05 40.6899 47.05 42.3399C47.04 43.9799 45.71 45.3199 44.07 45.3199Z" fill="#B52019"/>
<path d="M47.7 51.6499L25.41 53.5899H25.33L3.03999 51.6499L0.130005 58.6199C0.130005 58.6199 7.24 64.2699 25.34 64.2899C25.35 64.2899 25.37 64.2899 25.38 64.2899C25.39 64.2899 25.41 64.2899 25.42 64.2899C43.51 64.2699 50.63 58.6199 50.63 58.6199L47.7 51.6499ZM15.7 55.5699L18.49 55.8399L18.04 61.0199C16.83 60.8999 15.7 60.7499 14.65 60.5799L15.7 55.5699ZM11.98 60.0799C10.94 59.8599 9.97999 59.6199 9.10999 59.3699L10.39 55.0599L12.99 55.3099L11.98 60.0799ZM21.19 56.0999L24 56.3699V61.3599C22.87 61.3399 21.78 61.2999 20.74 61.2399L21.19 56.0999ZM26.73 56.3699L29.54 56.0999L29.99 61.2399C28.95 61.2999 27.86 61.3399 26.73 61.3599V56.3699ZM32.24 55.8399L35.03 55.5699L36.09 60.5699C35.03 60.7399 33.9 60.8899 32.7 61.0099L32.24 55.8399ZM37.74 55.3099L40.34 55.0599L41.62 59.3599C40.75 59.6099 39.79 59.8399 38.75 60.0699L37.74 55.3099ZM5.10001 54.5599L7.64001 54.7999L6.53 58.5299C5.45 58.1399 4.56999 57.7499 3.89999 57.4199L5.10001 54.5599ZM44.18 58.5399L43.06 54.7999L45.63 54.5499L46.83 57.4199C46.15 57.7599 45.26 58.1399 44.18 58.5399Z" fill="#2E3777"/>
</svg>
