<svg width="79" height="43" viewBox="0 0 79 43" fill="none" xmlns="http://www.w3.org/2000/svg">
<path d="M25 29.97C21.64 29.97 18.92 32.69 18.92 36.05C18.92 39.41 21.64 42.13 25 42.13C28.36 42.13 31.08 39.41 31.08 36.05C31.08 32.69 28.36 29.97 25 29.97ZM25 40.3C22.65 40.3 20.75 38.4 20.75 36.05C20.75 33.7 22.65 31.8 25 31.8C27.35 31.8 29.25 33.7 29.25 36.05C29.25 38.39 27.35 40.3 25 40.3Z" fill="#2E3777"/>
<path d="M66.24 29.97C62.88 29.97 60.16 32.69 60.16 36.05C60.16 39.41 62.88 42.13 66.24 42.13C69.6 42.13 72.32 39.41 72.32 36.05C72.32 32.69 69.6 29.97 66.24 29.97ZM66.24 40.3C63.89 40.3 61.99 38.4 61.99 36.05C61.99 33.7 63.9 31.8 66.24 31.8C68.58 31.8 70.49 33.7 70.49 36.05C70.5 38.39 68.59 40.3 66.24 40.3Z" fill="#2E3777"/>
<path d="M10.81 29.97C7.45 29.97 4.73001 32.69 4.73001 36.05C4.73001 39.41 7.45 42.13 10.81 42.13C14.17 42.13 16.89 39.41 16.89 36.05C16.88 32.69 14.16 29.97 10.81 29.97ZM10.81 40.3C8.46 40.3 6.56 38.4 6.56 36.05C6.56 33.7 8.46 31.8 10.81 31.8C13.16 31.8 15.06 33.7 15.06 36.05C15.06 38.39 13.16 40.3 10.81 40.3Z" fill="#2E3777"/>
<path d="M47.14 0.560059H3.67001C2.06001 0.560059 0.75 1.87006 0.75 3.48006V33.1201C0.75 33.9201 0.979985 34.7801 1.60999 35.1801C2.96999 36.0401 3.28001 34.4401 3.51001 33.7301C4.49001 30.6301 7.39 28.3901 10.81 28.3901C13.07 28.3901 15.09 29.3701 16.49 30.9201C17.08 31.5801 18.68 31.6601 19.23 31.0201C20.63 29.4101 22.7 28.3901 25 28.3901C28.46 28.3901 31.32 30.7101 32.34 33.8401C32.77 35.1801 33.98 36.0501 34.8 36.0501C38.09 36.0501 47.14 36.0501 47.14 36.0501C48.75 36.0501 50.06 34.7401 50.06 33.1301V3.48006C50.06 1.88006 48.74 0.560059 47.14 0.560059Z" fill="#2E3777"/>
<path d="M77.86 30.7201C77.63 23.5701 74.44 24.3501 72.49 19.5001C68.44 9.43007 64.54 8.07007 59.11 8.07007C56.05 8.07007 54.38 8.07007 54.38 8.07007C52.96 8.07007 52.24 9.45007 52.24 11.0601V33.1701C52.24 34.7801 53.55 36.0701 55.16 36.0301C55.16 36.0301 55.83 35.9701 56.9 36.0001C57.99 36.0301 58.66 34.8301 58.79 34.2901C59.58 30.9001 62.62 28.3701 66.25 28.3701C69.67 28.3701 72.51 30.6201 73.54 33.7001C74 35.0601 74.95 35.4801 75.45 35.4201C76.37 35.3001 76.74 34.7301 77.16 34.1601C77.98 34.0301 78.62 33.2401 78.62 32.2801C78.61 31.6401 78.31 31.0601 77.86 30.7201ZM66.96 20.6401H57.69C56.08 20.6401 54.77 19.3301 54.77 17.7201V13.7401C54.77 12.1301 55.72 10.8201 57.33 10.8201H58.26C59.87 10.8201 60.95 10.8601 62.68 11.1201C64 11.3101 65.24 12.0701 67.31 15.0501C68.49 16.7501 68.91 17.8501 69.07 19.0101C69.2 20.0201 68.56 20.6401 66.96 20.6401Z" fill="#B52019"/>
</svg>
