<svg width="76" height="67" viewBox="0 0 76 67" fill="none" xmlns="http://www.w3.org/2000/svg">
<path d="M75.1 61.41C75.1 62.45 74.24 63.31 73.2 63.31H9.60999C8.55999 63.31 7.70999 62.45 7.70999 61.41V58.18C7.70999 57.14 8.56999 56.28 9.60999 56.28H73.2C74.25 56.28 75.1 57.14 75.1 58.18V61.41Z" fill="#2E3777"/>
<path d="M19.22 65.53C19.22 66.24 18.36 66.82 17.32 66.82H13.17C12.12 66.82 11.27 66.24 11.27 65.53C11.27 64.82 12.13 64.24 13.17 64.24H17.32C18.37 64.24 19.22 64.82 19.22 65.53Z" fill="#B52019"/>
<path d="M70.81 65.53C70.81 66.24 69.95 66.82 68.91 66.82H64.76C63.71 66.82 62.86 66.24 62.86 65.53C62.86 64.82 63.72 64.24 64.76 64.24H68.91C69.95 64.24 70.81 64.82 70.81 65.53Z" fill="#B52019"/>
<path d="M75.1 54.2099C75.1 54.6299 74.76 54.9799 73.72 54.9799H9.08999C8.03999 54.9799 7.70999 54.6299 7.70999 54.2099C7.70999 53.7899 8.04999 53.4399 9.08999 53.4399H73.71C74.76 53.4399 75.1 53.7899 75.1 54.2099Z" fill="#2E3777"/>
<path d="M12.36 17.9399V50.0699C12.36 51.1199 13.22 51.9699 14.26 51.9699H16.33C17.38 51.9699 18.23 51.1099 18.23 50.0699V17.9399H12.36Z" fill="#2E3777"/>
<path d="M56.91 22.3799H26.06V51.8599H56.91V22.3799Z" fill="#B52019"/>
<path d="M64.3 22.3799H58.05V51.8599H64.3V22.3799Z" fill="#B52019"/>
<path d="M15.3 0.219971C7.32 0.219971 0.839996 6.68996 0.839996 14.68C0.839996 15.3 0.839996 15.3 0.839996 15.3C0.909996 15.97 1.31 16.51 2.36 16.51H28.32C29.37 16.51 29.69 15.97 29.76 15.3C29.76 15.3 29.76 15.3 29.76 14.68C29.75 6.69996 23.28 0.219971 15.3 0.219971ZM2.74 14.61C2.78 7.71995 8.4 2.12997 15.29 2.12997C22.19 2.12997 27.81 7.71995 27.84 14.61H2.74Z" fill="#B52019"/>
<path d="M26.8196 11.2829L23.3037 12.2253L23.5186 13.0271L27.0345 12.0847L26.8196 11.2829Z" fill="#2E3777"/>
<path d="M25.5092 8.41217L22.3566 10.2314L22.7714 10.9503L25.924 9.13105L25.5092 8.41217Z" fill="#2E3777"/>
<path d="M23.5238 5.98963L20.95 8.56348L21.5369 9.15037L24.1107 6.57653L23.5238 5.98963Z" fill="#2E3777"/>
<path d="M20.9734 4.16831L19.1516 7.31982L19.8702 7.73524L21.692 4.58373L20.9734 4.16831Z" fill="#2E3777"/>
<path d="M18.0211 3.05615L17.0784 6.57202L17.8801 6.78699L18.8228 3.27112L18.0211 3.05615Z" fill="#2E3777"/>
<path d="M15.71 2.75H14.88V7.56H15.71V2.75Z" fill="#2E3777"/>
<path d="M12.5856 3.0632L11.7837 3.27759L12.7239 6.79419L13.5258 6.5798L12.5856 3.0632Z" fill="#2E3777"/>
<path d="M9.62523 4.15182L8.90637 4.56665L10.7256 7.71925L11.4445 7.30442L9.62523 4.15182Z" fill="#2E3777"/>
<path d="M7.06999 5.98999L9.64999 8.55998L9.05999 9.14998L6.48999 6.56999L7.06999 5.98999Z" fill="#2E3777"/>
<path d="M5.07 8.41992L8.23 10.2399L7.81001 10.9499L4.66 9.12991L5.07 8.41992Z" fill="#2E3777"/>
<path d="M3.77 11.28L7.28 12.22L7.07 13.02L3.56 12.08L3.77 11.28Z" fill="#2E3777"/>
<path d="M18.2215 5.44359L15.3425 11.3494L16.8347 12.0768L19.7137 6.17101L18.2215 5.44359Z" fill="#B52019"/>
<path d="M13.96 13.6999C14.25 13.2699 14.74 12.9898 15.29 12.9898C15.84 12.9898 16.33 13.2699 16.62 13.6999H18.67C18.27 12.1999 16.91 11.0898 15.29 11.0898C13.67 11.0898 12.31 12.1999 11.91 13.6999H13.96Z" fill="#2E3777"/>
<path d="M39.28 42.6501H27.92V43.9202H39.28V42.6501Z" fill="white"/>
<path d="M29.04 35.8701H31.54V41.4701H29.04V35.8701ZM30.29 30.3301L27.67 34.8401H32.9L30.29 30.3301Z" fill="white"/>
<path d="M35.65 35.8701H38.15V41.4701H35.65V35.8701ZM36.9 30.3301L34.28 34.8401H39.51L36.9 30.3301Z" fill="white"/>
<path d="M55.29 34.7101C54.24 32.1401 51.71 30.3301 48.76 30.3301C45.81 30.3301 43.29 32.1401 42.23 34.7101H55.29Z" fill="white"/>
<path d="M50.4 43.9101C49.31 43.9101 48.2 43.2101 48.19 41.8901C48.18 40.7801 48.19 35.8501 48.19 35.8501H49.35C49.35 35.8501 49.35 40.7801 49.35 41.8901C49.35 42.7501 50.36 42.7601 50.4 42.7601C50.68 42.7601 51.3 42.5301 51.3 41.8601H52.46C52.46 43.1301 51.39 43.9101 50.4 43.9101Z" fill="white"/>
</svg>
