<svg width="145" height="14" viewBox="0 0 145 14" fill="none" xmlns="http://www.w3.org/2000/svg">
<g opacity="0.5">
<path d="M0.078125 7.82626C0.078125 9.39953 0.50921 10.5667 1.37138 11.3279C2.23355 12.089 3.34968 12.4695 4.71976 12.4695C6.03862 12.4695 7.06298 12.1783 7.79284 11.5957C8.52696 11.0089 8.9239 10.2266 8.98366 9.24858L8.99006 9.11464H7.17182V9.24858C7.12914 9.77584 6.91573 10.2117 6.53159 10.5561C6.15173 10.9005 5.53924 11.0727 4.69415 11.0727C3.86186 11.0727 3.18962 10.8282 2.67744 10.3392C2.16953 9.846 1.91557 9.05511 1.91557 7.96658V7.30325C1.91557 6.26149 2.17166 5.48336 2.68384 4.96886C3.20029 4.45436 3.87039 4.1971 4.69415 4.1971C5.44108 4.1971 6.02795 4.34805 6.45477 4.64995C6.88585 4.9476 7.12273 5.40257 7.16542 6.01487L7.17182 6.15519H8.98366L8.97725 6.03401C8.90896 4.97949 8.49708 4.17797 7.74162 3.62945C6.99042 3.07668 5.98313 2.80029 4.71976 2.80029C3.35394 2.80029 2.23782 3.18936 1.37138 3.96749C0.50921 4.74137 0.078125 5.90007 0.078125 7.44357V7.82626Z" fill="#2E3777"/>
<path d="M16.3911 14.0003H18.0108V10.9771H9.36139V14.0003H10.9812V12.2782H16.3911V14.0003ZM12.2808 6.79938H15.2194V12.157H16.9353V5.50462H10.7827L10.6546 8.28549C10.612 9.14016 10.5373 9.78435 10.4306 10.2181C10.3239 10.6475 10.2001 10.9558 10.0592 11.1429H11.7686C11.8796 10.8963 11.9692 10.588 12.0375 10.2181C12.1101 9.84813 12.1634 9.32512 12.1976 8.64904L12.2808 6.79938Z" fill="#2E3777"/>
<path d="M18.6831 8.98708C18.6831 10.0288 19.0416 10.8708 19.7586 11.5128C20.4757 12.1506 21.4808 12.4695 22.7741 12.4695C23.5765 12.4695 24.268 12.3356 24.8484 12.0677C25.4332 11.7956 25.8515 11.4724 26.1033 11.0982L24.9189 10.25C24.6798 10.5178 24.3811 10.7389 24.0225 10.9133C23.664 11.0834 23.2393 11.1684 22.7485 11.1684C21.929 11.1684 21.3293 10.9792 20.9495 10.6007C20.5696 10.2181 20.3797 9.70356 20.3797 9.05724V8.7192C20.3797 8.06438 20.5611 7.54562 20.9239 7.16294C21.2866 6.78025 21.8266 6.5889 22.5436 6.5889C23.2521 6.5889 23.7579 6.72922 24.061 7.00986C24.364 7.2905 24.5134 7.68169 24.5091 8.18344L24.5155 8.21533H19.7907V9.29323H26.2249V8.67455C26.2249 7.62854 25.9027 6.80576 25.2582 6.20622C24.618 5.60667 23.7216 5.3069 22.5692 5.3069C21.4211 5.3069 20.4864 5.62793 19.765 6.27C19.0437 6.90781 18.6831 7.74547 18.6831 8.78298V8.98708Z" fill="#2E3777"/>
<path d="M29.7334 6.80576H32.5439V12.2782H34.2789V5.50462H28.2288L28.0816 8.99346C28.0474 9.76309 27.977 10.2925 27.8703 10.5816C27.7636 10.8708 27.5502 11.0153 27.2301 11.0153C27.1404 11.0153 27.0572 11.0089 26.9804 10.9962C26.9036 10.9834 26.8289 10.9622 26.7563 10.9324V12.3101C26.8459 12.3484 26.959 12.3781 27.0956 12.3994C27.2365 12.4206 27.388 12.4313 27.5502 12.4313C28.3099 12.4313 28.8328 12.1847 29.1187 11.6914C29.409 11.1939 29.5797 10.3605 29.6309 9.19118L29.7334 6.80576Z" fill="#2E3777"/>
<path d="M35.7002 10.2818C35.7002 10.9707 35.9478 11.4958 36.4429 11.8572C36.9423 12.2187 37.6252 12.3994 38.4916 12.3994C39.2129 12.3994 39.8126 12.2995 40.2907 12.0996C40.7687 11.8998 41.0952 11.6638 41.2702 11.3916C41.283 11.5532 41.3172 11.7169 41.3726 11.8828C41.4281 12.0443 41.4857 12.1761 41.5455 12.2782H43.2293V12.1761C43.1354 11.9976 43.0607 11.7871 43.0052 11.5447C42.954 11.2981 42.9284 11.0366 42.9284 10.7602V7.62216C42.9284 6.86529 42.6382 6.29126 42.0577 5.90007C41.4772 5.50887 40.662 5.31328 39.612 5.31328C38.5322 5.31328 37.6828 5.48974 37.0639 5.84266C36.4493 6.19133 36.142 6.70796 36.142 7.39255V7.44995H37.845V7.39255C37.845 7.11616 37.9859 6.90143 38.2676 6.74836C38.5535 6.59528 38.9782 6.51874 39.5416 6.51874C40.1221 6.51874 40.5446 6.60591 40.8092 6.78025C41.0781 6.95458 41.2126 7.2331 41.2126 7.61578V8.06225H39.3047C38.148 8.06225 37.2581 8.25147 36.635 8.62991C36.0118 9.00834 35.7002 9.55899 35.7002 10.2818ZM37.4225 10.1607C37.4225 9.81624 37.6039 9.55048 37.9666 9.36339C38.3294 9.1763 38.8566 9.08275 39.548 9.08275H41.2254V9.83537C41.2254 10.1925 41.012 10.5115 40.5852 10.7921C40.1583 11.0685 39.6526 11.2067 39.0678 11.2067C38.4916 11.2067 38.0733 11.1238 37.813 10.9579C37.5526 10.7878 37.4225 10.5221 37.4225 10.1607Z" fill="#2E3777"/>
<path d="M44.785 5.50462V12.2782H46.5201V9.47182H49.9901V12.2782H51.7187V5.50462H49.9901V8.17068H46.5201V5.50462H44.785Z" fill="#2E3777"/>
<path d="M53.1656 8.98708C53.1656 10.0416 53.5369 10.8856 54.2796 11.5192C55.0222 12.1528 55.9975 12.4695 57.2054 12.4695C58.4176 12.4695 59.3928 12.1528 60.1312 11.5192C60.8739 10.8856 61.2452 10.0416 61.2452 8.98708V8.78298C61.2452 7.73272 60.8739 6.8908 60.1312 6.25724C59.3928 5.62368 58.4176 5.3069 57.2054 5.3069C55.9975 5.3069 55.0222 5.62368 54.2796 6.25724C53.5369 6.8908 53.1656 7.73272 53.1656 8.78298V8.98708ZM54.9326 8.7192C54.9326 8.08564 55.1289 7.58177 55.5216 7.20758C55.9143 6.82915 56.4756 6.63993 57.2054 6.63993C57.9353 6.63993 58.4944 6.82915 58.8828 7.20758C59.2755 7.58177 59.4718 8.08351 59.4718 8.71282V9.05724C59.4718 9.69505 59.2776 10.2011 58.8892 10.5752C58.5008 10.9494 57.9395 11.1365 57.2054 11.1365C56.4713 11.1365 55.9079 10.9494 55.5152 10.5752C55.1268 10.2011 54.9326 9.69718 54.9326 9.06362V8.7192Z" fill="#2E3777"/>
<path d="M65.9253 12.2782H70.3492C71.1901 12.2782 71.8217 12.1102 72.2443 11.7743C72.6668 11.4384 72.8781 10.9686 72.8781 10.3648C72.8781 9.92679 72.7415 9.576 72.4684 9.31237C72.1995 9.04874 71.8495 8.8744 71.4184 8.78936V8.77023C71.8111 8.65542 72.112 8.4747 72.3211 8.22808C72.5303 7.97721 72.6348 7.65193 72.6348 7.25223C72.6348 6.67395 72.43 6.23811 72.0202 5.94471C71.6147 5.65132 70.9788 5.50462 70.1123 5.50462H65.9253V12.2782ZM67.6347 8.27911V6.66544H69.9011C70.2511 6.66544 70.5029 6.73135 70.6565 6.86316C70.8145 6.99073 70.8934 7.18207 70.8934 7.4372C70.8934 7.70508 70.8145 7.91343 70.6565 8.06225C70.5029 8.20682 70.2511 8.27911 69.9011 8.27911H67.6347ZM67.6347 11.111V9.38253H70.0867C70.4495 9.38253 70.7142 9.45906 70.8806 9.61214C71.0513 9.76096 71.1367 9.96931 71.1367 10.2372C71.1367 10.5093 71.0513 10.7241 70.8806 10.8814C70.7142 11.0345 70.4495 11.111 70.0867 11.111H67.6347Z" fill="#2E3777"/>
<path d="M80.7178 12.3785H84.094V8.96532H89.2286C90.7406 8.96039 91.9128 8.62794 92.7452 7.96796C93.5825 7.30797 94.0011 6.38695 94.0011 5.2049C94.0011 4.06716 93.5899 3.18555 92.7674 2.56004C91.9498 1.93454 90.785 1.62178 89.2729 1.62178H80.7178V12.3785ZM84.094 6.77112V4.01545H88.4603C89.1892 4.01545 89.7236 4.13858 90.0634 4.38484C90.4082 4.63111 90.5806 4.97095 90.5806 5.40437C90.5806 5.82301 90.4082 6.15547 90.0634 6.40173C89.7236 6.64799 89.1892 6.77112 88.4603 6.77112H84.094ZM91.1347 12.3785H94.969L91.0386 7.56162L87.751 7.83498L91.1347 12.3785Z" fill="#2E3777"/>
<path d="M95.1684 6.75635C95.1684 8.70674 95.9762 10.1695 97.5917 11.1447C99.2071 12.115 101.209 12.6001 103.598 12.6001C105.987 12.6001 107.994 12.115 109.619 11.1447C111.249 10.1695 112.064 8.70674 112.064 6.75635V7.09619C112.064 5.21967 111.249 3.8012 109.619 2.84078C107.994 1.88036 105.987 1.40015 103.598 1.40015C101.209 1.40015 99.2071 1.88036 97.5917 2.84078C95.9762 3.8012 95.1684 5.21967 95.1684 7.09619V6.75635ZM98.7072 6.80806V7.0888C98.7072 6.00525 99.1554 5.18273 100.052 4.62125C100.948 4.05485 102.135 3.7815 103.613 3.8012C105.08 3.81598 106.267 4.09672 107.174 4.64342C108.085 5.19012 108.54 6.00771 108.54 7.09619V6.82284C108.54 7.96057 108.085 8.82495 107.174 9.41598C106.263 10.007 105.076 10.2951 103.613 10.2804C102.14 10.2607 100.953 9.96514 100.052 9.39381C99.1554 8.81756 98.7072 7.95564 98.7072 6.80806Z" fill="#2E3777"/>
<path d="M113.003 9.47508C113.067 10.5291 113.722 11.3147 114.968 11.8318C116.219 12.344 117.962 12.6001 120.199 12.6001C122.435 12.6001 124.141 12.2849 125.318 11.6545C126.495 11.0191 127.084 10.103 127.084 8.90622C127.084 7.80789 126.643 7.04201 125.762 6.60859C124.885 6.17024 123.363 5.82548 121.196 5.57429C119.142 5.36743 117.849 5.20243 117.317 5.0793C116.79 4.95125 116.527 4.78625 116.527 4.58432C116.527 4.31835 116.771 4.10903 117.258 3.95635C117.746 3.80366 118.585 3.72732 119.777 3.72732C121.156 3.72732 122.102 3.83075 122.614 4.03761C123.127 4.23955 123.412 4.49074 123.471 4.79118L123.508 5.00542H126.567L126.537 4.59909C126.449 3.56972 125.835 2.77921 124.698 2.22759C123.565 1.67596 121.908 1.40015 119.726 1.40015C117.598 1.40015 115.98 1.70551 114.872 2.31624C113.769 2.92205 113.217 3.76673 113.217 4.85028C113.217 5.80578 113.643 6.5618 114.495 7.11835C115.352 7.6749 116.886 8.07631 119.098 8.32257C121.137 8.52943 122.427 8.6895 122.969 8.80279C123.516 8.91607 123.789 9.10815 123.789 9.37904C123.789 9.6844 123.511 9.92328 122.954 10.0957C122.398 10.268 121.457 10.3542 120.132 10.3542C118.768 10.3542 117.778 10.268 117.162 10.0957C116.551 9.91835 116.207 9.61053 116.128 9.17218L116.083 8.86189H112.966L113.003 9.47508Z" fill="#2E3777"/>
<path d="M128.104 6.75635C128.104 8.70674 128.911 10.1695 130.527 11.1447C132.142 12.115 134.144 12.6001 136.533 12.6001C138.922 12.6001 140.929 12.115 142.554 11.1447C144.184 10.1695 145 8.70674 145 6.75635V7.09619C145 5.21967 144.184 3.8012 142.554 2.84078C140.929 1.88036 138.922 1.40015 136.533 1.40015C134.144 1.40015 132.142 1.88036 130.527 2.84078C128.911 3.8012 128.104 5.21967 128.104 7.09619V6.75635ZM131.642 6.80806V7.0888C131.642 6.00525 132.091 5.18273 132.987 4.62125C133.883 4.05485 135.07 3.7815 136.548 3.8012C138.016 3.81598 139.203 4.09672 140.109 4.64342C141.02 5.19012 141.476 6.00771 141.476 7.09619V6.82284C141.476 7.96057 141.02 8.82495 140.109 9.41598C139.198 10.007 138.011 10.2951 136.548 10.2804C135.075 10.2607 133.888 9.96514 132.987 9.39381C132.091 8.81756 131.642 7.95564 131.642 6.80806Z" fill="#2E3777"/>
</g>
</svg>
