<svg width="240" height="30" viewBox="0 0 240 30" fill="none" xmlns="http://www.w3.org/2000/svg">
<path d="M8.8433 4.2417H4.60596V8.47906H8.8433V4.2417Z" fill="#2E3777"/>
<path d="M13.0845 4.2417H8.84717V8.47906H13.0845V4.2417Z" fill="#2E3777"/>
<path d="M17.3223 4.2417H13.085V8.47906H17.3223V4.2417Z" fill="#2E3777"/>
<path d="M38.5166 0H34.2793V4.23736H38.5166V0Z" fill="#2E3777"/>
<path d="M55.4698 4.2417H51.2324V8.47906H55.4698V4.2417Z" fill="#2E3777"/>
<path d="M93.6217 4.2417H89.3843V8.47906H93.6217V4.2417Z" fill="#2E3777"/>
<path d="M97.8589 4.2417H93.6216V8.47906H97.8589V4.2417Z" fill="#2E3777"/>
<path d="M114.816 4.2417H110.579V8.47906H114.816V4.2417Z" fill="#2E3777"/>
<path d="M127.532 4.2417H123.294V8.47906H127.532V4.2417Z" fill="#2E3777"/>
<path d="M136.011 4.2417H131.773V8.47906H136.011V4.2417Z" fill="#2E3777"/>
<path d="M161.442 4.2417H157.205V8.47906H161.442V4.2417Z" fill="#2E3777"/>
<path d="M165.68 4.2417H161.442V8.47906H165.68V4.2417Z" fill="#2E3777"/>
<path d="M46.9952 8.47876H42.7578V12.7161H46.9952V8.47876Z" fill="#2E3777"/>
<path d="M68.1895 8.47876H63.9521V12.7161H68.1895V8.47876Z" fill="#2E3777"/>
<path d="M72.4269 8.47876H68.1895V12.7161H72.4269V8.47876Z" fill="#2E3777"/>
<path d="M89.3804 8.47876H85.1431V12.7161H89.3804V8.47876Z" fill="#2E3777"/>
<path d="M110.575 8.47876H106.337V12.7161H110.575V8.47876Z" fill="#2E3777"/>
<path d="M119.053 8.47876H114.816V12.7161H119.053V8.47876Z" fill="#2E3777"/>
<path d="M123.294 8.47876H119.057V12.7161H123.294V8.47876Z" fill="#2E3777"/>
<path d="M136.011 8.47876H131.773V12.7161H136.011V8.47876Z" fill="#2E3777"/>
<path d="M140.248 8.47876H136.01V12.7161H140.248V8.47876Z" fill="#2E3777"/>
<path d="M25.8004 12.7202H21.563V16.9576H25.8004V12.7202Z" fill="#2E3777"/>
<path d="M30.0381 12.7202H25.8008V16.9576H30.0381V12.7202Z" fill="#2E3777"/>
<path d="M46.9952 12.7202H42.7578V16.9576H46.9952V12.7202Z" fill="#2E3777"/>
<path d="M51.2326 12.7202H46.9951V16.9576H51.2326V12.7202Z" fill="#2E3777"/>
<path d="M59.711 12.7202H55.4736V16.9576H59.711V12.7202Z" fill="#2E3777"/>
<path d="M76.6641 12.7202H72.4268V16.9576H76.6641V12.7202Z" fill="#2E3777"/>
<path d="M119.053 12.7202H114.816V16.9576H119.053V12.7202Z" fill="#2E3777"/>
<path d="M144.485 12.7202H140.248V16.9576H144.485V12.7202Z" fill="#2E3777"/>
<path d="M169.921 12.7202H165.684V16.9576H169.921V12.7202Z" fill="#2E3777"/>
<path d="M8.8433 16.9575H4.60596V21.1949H8.8433V16.9575Z" fill="#2E3777"/>
<path d="M80.9058 16.9575H76.6685V21.1949H80.9058V16.9575Z" fill="#2E3777"/>
<path d="M89.3804 16.9575H85.1431V21.1949H89.3804V16.9575Z" fill="#2E3777"/>
<path d="M102.1 16.9575H97.8628V21.1949H102.1V16.9575Z" fill="#2E3777"/>
<path d="M123.294 16.9575H119.057V21.1949H123.294V16.9575Z" fill="#2E3777"/>
<path d="M144.485 16.9575H140.248V21.1949H144.485V16.9575Z" fill="#2E3777"/>
<path d="M148.727 16.9575H144.489V21.1949H148.727V16.9575Z" fill="#2E3777"/>
<path d="M165.68 16.9575H161.442V21.1949H165.68V16.9575Z" fill="#2E3777"/>
<path d="M169.921 16.9575H165.684V21.1949H169.921V16.9575Z" fill="#2E3777"/>
<path d="M4.60609 21.1948H0.368652V25.4322H4.60609V21.1948Z" fill="#2E3777"/>
<path d="M80.9058 21.1948H76.6685V25.4322H80.9058V21.1948Z" fill="#2E3777"/>
<path d="M89.3804 21.1948H85.1431V25.4322H89.3804V21.1948Z" fill="#2E3777"/>
<path d="M110.575 21.1948H106.337V25.4322H110.575V21.1948Z" fill="#2E3777"/>
<path d="M114.816 21.1948H110.579V25.4322H114.816V21.1948Z" fill="#2E3777"/>
<path d="M4.60609 4.2417H0.368652V8.47906H4.60609V4.2417Z" fill="#B52019"/>
<path d="M25.8004 4.2417H21.563V8.47906H25.8004V4.2417Z" fill="#B52019"/>
<path d="M46.9952 4.2417H42.7578V8.47906H46.9952V4.2417Z" fill="#B52019"/>
<path d="M51.2326 4.2417H46.9951V8.47906H51.2326V4.2417Z" fill="#B52019"/>
<path d="M59.711 4.2417H55.4736V8.47906H59.711V4.2417Z" fill="#B52019"/>
<path d="M68.1895 4.2417H63.9521V8.47906H68.1895V4.2417Z" fill="#B52019"/>
<path d="M80.9058 4.2417H76.6685V8.47906H80.9058V4.2417Z" fill="#B52019"/>
<path d="M89.3804 4.2417H85.1431V8.47906H89.3804V4.2417Z" fill="#B52019"/>
<path d="M110.575 0H106.337V4.23736H110.575V0Z" fill="#B52019"/>
<path d="M119.053 4.2417H114.816V8.47906H119.053V4.2417Z" fill="#B52019"/>
<path d="M123.294 4.2417H119.057V8.47906H123.294V4.2417Z" fill="#B52019"/>
<path d="M148.727 4.2417H144.489V8.47906H148.727V4.2417Z" fill="#B52019"/>
<path d="M169.921 4.2417H165.684V8.47906H169.921V4.2417Z" fill="#B52019"/>
<path d="M25.8004 8.47876H21.563V12.7161H25.8004V8.47876Z" fill="#B52019"/>
<path d="M38.5166 8.47876H34.2793V12.7161H38.5166V8.47876Z" fill="#B52019"/>
<path d="M80.9058 8.47876H76.6685V12.7161H80.9058V8.47876Z" fill="#B52019"/>
<path d="M102.1 8.47876H97.8628V12.7161H102.1V8.47876Z" fill="#B52019"/>
<path d="M114.816 8.47876H110.579V12.7161H114.816V8.47876Z" fill="#B52019"/>
<path d="M127.532 8.47876H123.294V12.7161H127.532V8.47876Z" fill="#B52019"/>
<path d="M148.727 8.47876H144.489V12.7161H148.727V8.47876Z" fill="#B52019"/>
<path d="M157.205 8.47876H152.968V12.7161H157.205V8.47876Z" fill="#B52019"/>
<path d="M13.0845 12.7202H8.84717V16.9576H13.0845V12.7202Z" fill="#B52019"/>
<path d="M38.5166 12.7202H34.2793V16.9576H38.5166V12.7202Z" fill="#B52019"/>
<path d="M68.1895 12.7202H63.9521V16.9576H68.1895V12.7202Z" fill="#B52019"/>
<path d="M80.9058 12.7202H76.6685V16.9576H80.9058V12.7202Z" fill="#B52019"/>
<path d="M89.3804 12.7202H85.1431V16.9576H89.3804V12.7202Z" fill="#B52019"/>
<path d="M102.1 12.7202H97.8628V16.9576H102.1V12.7202Z" fill="#B52019"/>
<path d="M110.575 12.7202H106.337V16.9576H110.575V12.7202Z" fill="#B52019"/>
<path d="M114.816 12.7202H110.579V16.9576H114.816V12.7202Z" fill="#B52019"/>
<path d="M123.294 12.7202H119.057V16.9576H123.294V12.7202Z" fill="#B52019"/>
<path d="M127.532 12.7202H123.294V16.9576H127.532V12.7202Z" fill="#B52019"/>
<path d="M136.011 12.7202H131.773V16.9576H136.011V12.7202Z" fill="#B52019"/>
<path d="M148.727 12.7202H144.489V16.9576H148.727V12.7202Z" fill="#B52019"/>
<path d="M157.205 12.7202H152.968V16.9576H157.205V12.7202Z" fill="#B52019"/>
<path d="M25.8004 16.9575H21.563V21.1949H25.8004V16.9575Z" fill="#B52019"/>
<path d="M38.5166 16.9575H34.2793V21.1949H38.5166V16.9575Z" fill="#B52019"/>
<path d="M46.9952 16.9575H42.7578V21.1949H46.9952V16.9575Z" fill="#B52019"/>
<path d="M68.1895 16.9575H63.9521V21.1949H68.1895V16.9575Z" fill="#B52019"/>
<path d="M110.575 16.9575H106.337V21.1949H110.575V16.9575Z" fill="#B52019"/>
<path d="M114.816 16.9575H110.579V21.1949H114.816V16.9575Z" fill="#B52019"/>
<path d="M119.053 16.9575H114.816V21.1949H119.053V16.9575Z" fill="#B52019"/>
<path d="M127.532 16.9575H123.294V21.1949H127.532V16.9575Z" fill="#B52019"/>
<path d="M136.011 16.9575H131.773V21.1949H136.011V16.9575Z" fill="#B52019"/>
<path d="M157.205 16.9575H152.968V21.1949H157.205V16.9575Z" fill="#B52019"/>
<path d="M8.8433 21.1948H4.60596V25.4322H8.8433V21.1948Z" fill="#B52019"/>
<path d="M13.0845 21.1948H8.84717V25.4322H13.0845V21.1948Z" fill="#B52019"/>
<path d="M17.3223 21.1948H13.085V25.4322H17.3223V21.1948Z" fill="#B52019"/>
<path d="M25.8004 21.1948H21.563V25.4322H25.8004V21.1948Z" fill="#B52019"/>
<path d="M38.5166 21.1948H34.2793V25.4322H38.5166V21.1948Z" fill="#B52019"/>
<path d="M46.9952 21.1948H42.7578V25.4322H46.9952V21.1948Z" fill="#B52019"/>
<path d="M51.2326 21.1948H46.9951V25.4322H51.2326V21.1948Z" fill="#B52019"/>
<path d="M55.4698 21.1948H51.2324V25.4322H55.4698V21.1948Z" fill="#B52019"/>
<path d="M59.711 21.1948H55.4736V25.4322H59.711V21.1948Z" fill="#B52019"/>
<path d="M68.1895 21.1948H63.9521V25.4322H68.1895V21.1948Z" fill="#B52019"/>
<path d="M93.6217 21.1948H89.3843V25.4322H93.6217V21.1948Z" fill="#B52019"/>
<path d="M97.8589 21.1948H93.6216V25.4322H97.8589V21.1948Z" fill="#B52019"/>
<path d="M119.053 21.1948H114.816V25.4322H119.053V21.1948Z" fill="#B52019"/>
<path d="M123.294 21.1948H119.057V25.4322H123.294V21.1948Z" fill="#B52019"/>
<path d="M127.532 21.1948H123.294V25.4322H127.532V21.1948Z" fill="#B52019"/>
<path d="M136.011 21.1948H131.773V25.4322H136.011V21.1948Z" fill="#B52019"/>
<path d="M148.727 21.1948H144.489V25.4322H148.727V21.1948Z" fill="#B52019"/>
<path d="M161.442 21.1948H157.205V25.4322H161.442V21.1948Z" fill="#B52019"/>
<path d="M165.68 21.1948H161.442V25.4322H165.68V21.1948Z" fill="#B52019"/>
<path d="M169.921 21.1948H165.684V25.4322H169.921V21.1948Z" fill="#B52019"/>
<path fill-rule="evenodd" clip-rule="evenodd" d="M113.145 17.7043C107.584 14.2795 107.909 10.762 113.926 11.772C119.112 12.6426 126.398 17.7701 129.955 21.4153C125.415 17.5998 119.251 13.2966 113.555 12.7317C108.601 12.2402 110.068 15.5179 113.145 17.7043Z" fill="white"/>
<path fill-rule="evenodd" clip-rule="evenodd" d="M114.15 12.2677C109.046 9.47766 110.795 7.19451 115.903 8.08842C120.296 8.85463 126.828 13.3087 128.759 15.321C125.268 12.8985 119.704 9.1642 115.296 8.61857C111.453 8.1426 110.865 10.2129 114.15 12.2677Z" fill="white"/>
<path fill-rule="evenodd" clip-rule="evenodd" d="M111.983 16.342C116.12 16.8412 123.225 21.957 125.222 24.1085C119.107 19.817 114.359 17.917 112.045 17.8357C107.572 17.6809 113.144 22.3826 114.44 23.1605C115.563 23.8338 116.956 24.5342 118.67 25.2385L118.647 25.3159C117.637 24.9212 116.05 24.2285 114.456 23.3772C110.729 21.392 105.536 15.5642 111.983 16.342Z" fill="white"/>
<path fill-rule="evenodd" clip-rule="evenodd" d="M116.79 8.71481C115.122 7.68546 114.189 6.62903 114.514 5.94409C115.118 4.66707 118.194 5.05018 119.328 5.36749C122.351 6.2111 125.624 8.47876 127.188 10.0576C124.727 8.25045 120.447 5.94408 117.32 5.72738C114.909 5.56098 114.05 6.76834 116.79 8.71481Z" fill="white"/>
<path fill-rule="evenodd" clip-rule="evenodd" d="M125.214 5.49098C125.083 5.29749 124.936 5.10788 124.773 4.94148C124.545 4.70156 124.282 4.49646 123.991 4.36876C121.263 3.14979 116.91 6.96922 114.263 12.8938C111.62 18.8183 111.686 24.6075 114.41 25.8264C115.056 26.1128 115.791 26.1205 116.573 25.8845C116.902 25.7839 116.883 25.7606 116.554 25.8303C116.02 25.9464 115.509 25.9116 115.029 25.6987C112.85 24.7274 112.858 18.3965 115.261 13.0099C116.306 10.6532 121.712 2.17075 125.148 5.52968C125.4 5.76186 125.586 6.02887 125.214 5.49098Z" fill="white"/>
<path d="M189.448 13V6.103H186.852V5.3H192.913V6.103H190.317V13H189.448ZM194.493 13V5.3H197.804C198.75 5.3 199.479 5.55667 199.993 6.07C200.389 6.466 200.587 6.972 200.587 7.588V7.61C200.587 8.226 200.396 8.72833 200.015 9.117C199.633 9.49833 199.127 9.744 198.497 9.854L200.862 13H199.795L197.562 10.008H195.362V13H194.493ZM195.362 9.227H197.727C198.313 9.227 198.79 9.084 199.157 8.798C199.523 8.512 199.707 8.127 199.707 7.643V7.621C199.707 7.14433 199.534 6.774 199.19 6.51C198.845 6.23867 198.361 6.103 197.738 6.103H195.362V9.227ZM201.782 13L205.291 5.245H206.105L209.614 13H208.679L207.777 10.965H203.586L202.673 13H201.782ZM203.927 10.184H207.436L205.687 6.257L203.927 10.184ZM211.132 13V5.3H213.805C215.001 5.3 215.98 5.66667 216.742 6.4C217.512 7.126 217.897 8.03533 217.897 9.128V9.15C217.897 10.25 217.512 11.1667 216.742 11.9C215.98 12.6333 215.001 13 213.805 13H211.132ZM213.805 6.103H212.001V12.197H213.805C214.766 12.197 215.536 11.911 216.115 11.339C216.702 10.767 216.995 10.0447 216.995 9.172V9.15C216.995 8.27733 216.702 7.55133 216.115 6.972C215.529 6.39267 214.759 6.103 213.805 6.103ZM219.814 13V5.3H220.683V13H219.814ZM222.938 13V5.3H223.752L228.603 11.471V5.3H229.45V13H228.757L223.785 6.686V13H222.938ZM235.204 13.132C234.023 13.132 233.073 12.7543 232.355 11.999C231.643 11.2437 231.288 10.3013 231.288 9.172V9.15C231.288 8.06467 231.651 7.12967 232.377 6.345C233.103 5.56033 234.027 5.168 235.149 5.168C235.765 5.168 236.293 5.25233 236.733 5.421C237.18 5.58967 237.609 5.84633 238.02 6.191L237.459 6.851C236.799 6.26433 236.018 5.971 235.116 5.971C234.28 5.971 233.583 6.279 233.026 6.895C232.468 7.511 232.19 8.25533 232.19 9.128V9.15C232.19 10.0813 232.465 10.8477 233.015 11.449C233.572 12.0503 234.313 12.351 235.237 12.351C236.087 12.351 236.828 12.0943 237.459 11.581V9.667H235.116V8.886H238.295V11.955C237.429 12.7397 236.399 13.132 235.204 13.132ZM187.446 24V16.3H188.315V19.721H192.759V16.3H193.628V24H192.759V20.535H188.315V24H187.446ZM202.205 22.966C201.465 23.7433 200.522 24.132 199.378 24.132C198.234 24.132 197.296 23.747 196.562 22.977C195.829 22.1997 195.462 21.2647 195.462 20.172V20.15C195.462 19.0573 195.833 18.1223 196.573 17.345C197.314 16.5603 198.256 16.168 199.4 16.168C200.544 16.168 201.483 16.5567 202.216 17.334C202.95 18.104 203.316 19.0353 203.316 20.128V20.15C203.316 21.2427 202.946 22.1813 202.205 22.966ZM197.222 22.405C197.802 23.021 198.528 23.329 199.4 23.329C200.273 23.329 200.992 23.0247 201.556 22.416C202.128 21.8073 202.414 21.0593 202.414 20.172V20.15C202.414 19.2627 202.125 18.511 201.545 17.895C200.973 17.279 200.251 16.971 199.378 16.971C198.506 16.971 197.783 17.2753 197.211 17.884C196.647 18.4927 196.364 19.2407 196.364 20.128V20.15C196.364 21.0373 196.65 21.789 197.222 22.405ZM208.229 24.121C207.254 24.121 206.476 23.8313 205.897 23.252C205.318 22.6653 205.028 21.8403 205.028 20.777V16.3H205.897V20.722C205.897 21.5507 206.102 22.1923 206.513 22.647C206.924 23.0943 207.503 23.318 208.251 23.318C208.977 23.318 209.545 23.1017 209.956 22.669C210.367 22.2363 210.572 21.6057 210.572 20.777V16.3H211.441V20.711C211.441 21.811 211.151 22.6543 210.572 23.241C210 23.8277 209.219 24.121 208.229 24.121ZM216.136 24.11C214.948 24.11 213.899 23.6993 212.99 22.878L213.529 22.24C213.939 22.614 214.35 22.889 214.761 23.065C215.179 23.241 215.648 23.329 216.169 23.329C216.682 23.329 217.096 23.208 217.412 22.966C217.727 22.7167 217.885 22.4013 217.885 22.02V21.998C217.885 21.624 217.745 21.3307 217.467 21.118C217.188 20.898 216.66 20.7037 215.883 20.535C214.973 20.337 214.313 20.073 213.903 19.743C213.499 19.4057 213.298 18.929 213.298 18.313V18.291C213.298 17.6897 213.536 17.191 214.013 16.795C214.497 16.3917 215.102 16.19 215.828 16.19C216.378 16.19 216.862 16.267 217.28 16.421C217.705 16.575 218.123 16.8133 218.534 17.136L218.028 17.807C217.346 17.2497 216.605 16.971 215.806 16.971C215.307 16.971 214.907 17.0883 214.607 17.323C214.313 17.5577 214.167 17.8547 214.167 18.214V18.236C214.167 18.6173 214.31 18.9217 214.596 19.149C214.889 19.369 215.443 19.5633 216.257 19.732C217.129 19.93 217.764 20.1977 218.16 20.535C218.563 20.8723 218.765 21.3307 218.765 21.91V21.932C218.765 22.5847 218.519 23.1127 218.028 23.516C217.536 23.912 216.906 24.11 216.136 24.11ZM220.532 24V16.3H226.098V17.092H221.401V19.721H225.603V20.513H221.401V23.208H226.153V24H220.532Z" fill="#2E3777"/>
</svg>
