<svg width="52" height="48" viewBox="0 0 52 48" fill="none" xmlns="http://www.w3.org/2000/svg">
<circle cx="26" cy="5" r="5" fill="#2E3777"/>
<path d="M1.01273 40V38.78L6.09273 34.3C7.18607 33.3267 7.94607 32.5267 8.37273 31.9C8.7994 31.26 9.01273 30.5933 9.01273 29.9C9.01273 29.1 8.7394 28.4533 8.19273 27.96C7.64607 27.4667 6.9794 27.22 6.19273 27.22C5.4194 27.22 4.74607 27.4133 4.17273 27.8C3.5994 28.1867 3.0194 28.7933 2.43273 29.62L1.27273 28.78C1.9794 27.7533 2.6994 27 3.43273 26.52C4.1794 26.04 5.1394 25.8 6.31273 25.8C7.56607 25.8 8.5994 26.1733 9.41273 26.92C10.2394 27.6667 10.6527 28.6133 10.6527 29.76V29.8C10.6527 30.7733 10.3927 31.64 9.87273 32.4C9.35273 33.1467 8.43273 34.0933 7.11273 35.24L3.37273 38.56H10.7927V40H1.01273ZM23.4454 38.14C22.3521 39.54 20.9254 40.24 19.1654 40.24C17.4054 40.24 15.9787 39.5467 14.8854 38.16C13.8054 36.76 13.2654 35.0533 13.2654 33.04V33C13.2654 30.9867 13.8121 29.28 14.9054 27.88C16.0121 26.4667 17.4454 25.76 19.2054 25.76C20.9654 25.76 22.3854 26.46 23.4654 27.86C24.5454 29.2467 25.0854 30.9467 25.0854 32.96V33C25.0854 35.0133 24.5387 36.7267 23.4454 38.14ZM16.0854 37.1C16.8854 38.2333 17.9254 38.8 19.2054 38.8C20.4854 38.8 21.5121 38.24 22.2854 37.12C23.0587 36 23.4454 34.64 23.4454 33.04V33C23.4454 31.4133 23.0454 30.0533 22.2454 28.92C21.4587 27.7733 20.4321 27.2 19.1654 27.2C17.8987 27.2 16.8721 27.76 16.0854 28.88C15.2987 30 14.9054 31.36 14.9054 32.96V33C14.9054 34.5867 15.2987 35.9533 16.0854 37.1ZM37.7423 38.14C36.6489 39.54 35.2223 40.24 33.4623 40.24C31.7023 40.24 30.2756 39.5467 29.1823 38.16C28.1023 36.76 27.5623 35.0533 27.5623 33.04V33C27.5623 30.9867 28.1089 29.28 29.2023 27.88C30.3089 26.4667 31.7423 25.76 33.5023 25.76C35.2623 25.76 36.6823 26.46 37.7623 27.86C38.8423 29.2467 39.3823 30.9467 39.3823 32.96V33C39.3823 35.0133 38.8356 36.7267 37.7423 38.14ZM30.3823 37.1C31.1823 38.2333 32.2223 38.8 33.5023 38.8C34.7823 38.8 35.8089 38.24 36.5823 37.12C37.3556 36 37.7423 34.64 37.7423 33.04V33C37.7423 31.4133 37.3423 30.0533 36.5423 28.92C35.7556 27.7733 34.7289 27.2 33.4623 27.2C32.1956 27.2 31.1689 27.76 30.3823 28.88C29.5956 30 29.2023 31.36 29.2023 32.96V33C29.2023 34.5867 29.5956 35.9533 30.3823 37.1ZM42.7732 40L49.0932 27.44H41.3932V26H50.8932V27.18L44.5332 40H42.7732Z" fill="#2E3777"/>
</svg>
