<svg width="55" height="48" viewBox="0 0 55 48" fill="none" xmlns="http://www.w3.org/2000/svg">
<circle cx="27.8574" cy="5" r="5" fill="#2E3777"/>
<path d="M2.23539 40V38.78L7.31539 34.3C8.40872 33.3267 9.16872 32.5267 9.59539 31.9C10.0221 31.26 10.2354 30.5933 10.2354 29.9C10.2354 29.1 9.96206 28.4533 9.41539 27.96C8.86872 27.4667 8.20206 27.22 7.41539 27.22C6.64206 27.22 5.96872 27.4133 5.39539 27.8C4.82206 28.1867 4.24206 28.7933 3.65539 29.62L2.49539 28.78C3.20206 27.7533 3.92206 27 4.65539 26.52C5.40206 26.04 6.36206 25.8 7.53539 25.8C8.78872 25.8 9.82206 26.1733 10.6354 26.92C11.4621 27.6667 11.8754 28.6133 11.8754 29.76V29.8C11.8754 30.7733 11.6154 31.64 11.0954 32.4C10.5754 33.1467 9.65539 34.0933 8.33539 35.24L4.59539 38.56H12.0154V40H2.23539ZM24.668 38.14C23.5747 39.54 22.148 40.24 20.388 40.24C18.628 40.24 17.2014 39.5467 16.108 38.16C15.028 36.76 14.488 35.0533 14.488 33.04V33C14.488 30.9867 15.0347 29.28 16.128 27.88C17.2347 26.4667 18.668 25.76 20.428 25.76C22.188 25.76 23.608 26.46 24.688 27.86C25.768 29.2467 26.308 30.9467 26.308 32.96V33C26.308 35.0133 25.7614 36.7267 24.668 38.14ZM17.308 37.1C18.108 38.2333 19.148 38.8 20.428 38.8C21.708 38.8 22.7347 38.24 23.508 37.12C24.2814 36 24.668 34.64 24.668 33.04V33C24.668 31.4133 24.268 30.0533 23.468 28.92C22.6814 27.7733 21.6547 27.2 20.388 27.2C19.1214 27.2 18.0947 27.76 17.308 28.88C16.5214 30 16.128 31.36 16.128 32.96V33C16.128 34.5867 16.5214 35.9533 17.308 37.1ZM38.9649 38.14C37.8716 39.54 36.4449 40.24 34.6849 40.24C32.9249 40.24 31.4983 39.5467 30.4049 38.16C29.3249 36.76 28.7849 35.0533 28.7849 33.04V33C28.7849 30.9867 29.3316 29.28 30.4249 27.88C31.5316 26.4667 32.9649 25.76 34.7249 25.76C36.4849 25.76 37.9049 26.46 38.9849 27.86C40.0649 29.2467 40.6049 30.9467 40.6049 32.96V33C40.6049 35.0133 40.0583 36.7267 38.9649 38.14ZM31.6049 37.1C32.4049 38.2333 33.4449 38.8 34.7249 38.8C36.0049 38.8 37.0316 38.24 37.8049 37.12C38.5783 36 38.9649 34.64 38.9649 33.04V33C38.9649 31.4133 38.5649 30.0533 37.7649 28.92C36.9783 27.7733 35.9516 27.2 34.6849 27.2C33.4183 27.2 32.3916 27.76 31.6049 28.88C30.8183 30 30.4249 31.36 30.4249 32.96V33C30.4249 34.5867 30.8183 35.9533 31.6049 37.1ZM51.9018 39.1C50.9018 39.8333 49.6485 40.2 48.1418 40.2C46.6351 40.2 45.3818 39.8333 44.3818 39.1C43.3818 38.3533 42.8818 37.4 42.8818 36.24V36.2C42.8818 35.4 43.1418 34.7133 43.6618 34.14C44.1818 33.5533 44.8818 33.0933 45.7618 32.76C44.1618 32.0267 43.3618 30.9533 43.3618 29.54V29.5C43.3618 28.4467 43.8285 27.5667 44.7618 26.86C45.7085 26.1533 46.8351 25.8 48.1418 25.8C49.4485 25.8 50.5685 26.1533 51.5018 26.86C52.4485 27.5667 52.9218 28.4467 52.9218 29.5V29.54C52.9218 30.9533 52.1218 32.0267 50.5218 32.76C51.4018 33.0933 52.1018 33.5467 52.6218 34.12C53.1418 34.6933 53.4018 35.38 53.4018 36.18V36.22C53.4018 37.3933 52.9018 38.3533 51.9018 39.1ZM45.8618 31.48C46.4751 31.96 47.2351 32.2 48.1418 32.2C49.0485 32.2 49.8085 31.96 50.4218 31.48C51.0351 31 51.3418 30.3867 51.3418 29.64V29.6C51.3418 28.9067 51.0351 28.3333 50.4218 27.88C49.8218 27.4133 49.0618 27.18 48.1418 27.18C47.2218 27.18 46.4551 27.4133 45.8418 27.88C45.2418 28.3333 44.9418 28.9067 44.9418 29.6V29.64C44.9418 30.3867 45.2485 31 45.8618 31.48ZM45.4618 38.06C46.1285 38.5667 47.0218 38.82 48.1418 38.82C49.2618 38.82 50.1485 38.5667 50.8018 38.06C51.4685 37.5533 51.8018 36.9333 51.8018 36.2V36.16C51.8018 35.4 51.4485 34.7667 50.7418 34.26C50.0351 33.7533 49.1685 33.5 48.1418 33.5C47.1151 33.5 46.2485 33.7533 45.5418 34.26C44.8351 34.7667 44.4818 35.4 44.4818 36.16V36.2C44.4818 36.9333 44.8085 37.5533 45.4618 38.06Z" fill="#2E3777"/>
</svg>
