<svg width="47" height="48" viewBox="0 0 47 48" fill="none" xmlns="http://www.w3.org/2000/svg">
<circle cx="23.7139" cy="5" r="5" fill="#2E3777"/>
<path d="M2.04691 40V38.78L7.12691 34.3C8.22025 33.3267 8.98025 32.5267 9.40691 31.9C9.83358 31.26 10.0469 30.5933 10.0469 29.9C10.0469 29.1 9.77358 28.4533 9.22691 27.96C8.68025 27.4667 8.01358 27.22 7.22691 27.22C6.45358 27.22 5.78025 27.4133 5.20691 27.8C4.63358 28.1867 4.05358 28.7933 3.46691 29.62L2.30691 28.78C3.01358 27.7533 3.73358 27 4.46691 26.52C5.21358 26.04 6.17358 25.8 7.34691 25.8C8.60025 25.8 9.63358 26.1733 10.4469 26.92C11.2736 27.6667 11.6869 28.6133 11.6869 29.76V29.8C11.6869 30.7733 11.4269 31.64 10.9069 32.4C10.3869 33.1467 9.46691 34.0933 8.14691 35.24L4.40691 38.56H11.8269V40H2.04691ZM24.4796 38.14C23.3862 39.54 21.9596 40.24 20.1996 40.24C18.4396 40.24 17.0129 39.5467 15.9196 38.16C14.8396 36.76 14.2996 35.0533 14.2996 33.04V33C14.2996 30.9867 14.8462 29.28 15.9396 27.88C17.0462 26.4667 18.4796 25.76 20.2396 25.76C21.9996 25.76 23.4196 26.46 24.4996 27.86C25.5796 29.2467 26.1196 30.9467 26.1196 32.96V33C26.1196 35.0133 25.5729 36.7267 24.4796 38.14ZM17.1196 37.1C17.9196 38.2333 18.9596 38.8 20.2396 38.8C21.5196 38.8 22.5462 38.24 23.3196 37.12C24.0929 36 24.4796 34.64 24.4796 33.04V33C24.4796 31.4133 24.0796 30.0533 23.2796 28.92C22.4929 27.7733 21.4662 27.2 20.1996 27.2C18.9329 27.2 17.9062 27.76 17.1196 28.88C16.3329 30 15.9396 31.36 15.9396 32.96V33C15.9396 34.5867 16.3329 35.9533 17.1196 37.1ZM30.8388 40V27.54L28.1988 28.36L27.8188 27.08L31.2388 25.9H32.3988V40H30.8388ZM37.1668 40L43.4868 27.44H35.7868V26H45.2868V27.18L38.9268 40H37.1668Z" fill="#2E3777"/>
</svg>
