<svg width="47" height="48" viewBox="0 0 47 48" fill="none" xmlns="http://www.w3.org/2000/svg">
<circle cx="23.5713" cy="5" r="5" fill="#2E3777"/>
<path d="M1.56254 40V38.78L6.64254 34.3C7.73587 33.3267 8.49587 32.5267 8.92254 31.9C9.34921 31.26 9.56254 30.5933 9.56254 29.9C9.56254 29.1 9.28921 28.4533 8.74254 27.96C8.19587 27.4667 7.52921 27.22 6.74254 27.22C5.96921 27.22 5.29587 27.4133 4.72254 27.8C4.14921 28.1867 3.56921 28.7933 2.98254 29.62L1.82254 28.78C2.52921 27.7533 3.24921 27 3.98254 26.52C4.72921 26.04 5.68921 25.8 6.86254 25.8C8.11587 25.8 9.14921 26.1733 9.96254 26.92C10.7892 27.6667 11.2025 28.6133 11.2025 29.76V29.8C11.2025 30.7733 10.9425 31.64 10.4225 32.4C9.90254 33.1467 8.98254 34.0933 7.66254 35.24L3.92254 38.56H11.3425V40H1.56254ZM23.9952 38.14C22.9019 39.54 21.4752 40.24 19.7152 40.24C17.9552 40.24 16.5285 39.5467 15.4352 38.16C14.3552 36.76 13.8152 35.0533 13.8152 33.04V33C13.8152 30.9867 14.3619 29.28 15.4552 27.88C16.5619 26.4667 17.9952 25.76 19.7552 25.76C21.5152 25.76 22.9352 26.46 24.0152 27.86C25.0952 29.2467 25.6352 30.9467 25.6352 32.96V33C25.6352 35.0133 25.0885 36.7267 23.9952 38.14ZM16.6352 37.1C17.4352 38.2333 18.4752 38.8 19.7552 38.8C21.0352 38.8 22.0619 38.24 22.8352 37.12C23.6085 36 23.9952 34.64 23.9952 33.04V33C23.9952 31.4133 23.5952 30.0533 22.7952 28.92C22.0085 27.7733 20.9819 27.2 19.7152 27.2C18.4485 27.2 17.4219 27.76 16.6352 28.88C15.8485 30 15.4552 31.36 15.4552 32.96V33C15.4552 34.5867 15.8485 35.9533 16.6352 37.1ZM30.3544 40V27.54L27.7144 28.36L27.3344 27.08L30.7544 25.9H31.9144V40H30.3544ZM44.0024 39.1C43.0024 39.8333 41.7491 40.2 40.2424 40.2C38.7357 40.2 37.4824 39.8333 36.4824 39.1C35.4824 38.3533 34.9824 37.4 34.9824 36.24V36.2C34.9824 35.4 35.2424 34.7133 35.7624 34.14C36.2824 33.5533 36.9824 33.0933 37.8624 32.76C36.2624 32.0267 35.4624 30.9533 35.4624 29.54V29.5C35.4624 28.4467 35.929 27.5667 36.8624 26.86C37.809 26.1533 38.9357 25.8 40.2424 25.8C41.549 25.8 42.669 26.1533 43.6024 26.86C44.549 27.5667 45.0224 28.4467 45.0224 29.5V29.54C45.0224 30.9533 44.2224 32.0267 42.6224 32.76C43.5024 33.0933 44.2024 33.5467 44.7224 34.12C45.2424 34.6933 45.5024 35.38 45.5024 36.18V36.22C45.5024 37.3933 45.0024 38.3533 44.0024 39.1ZM37.9624 31.48C38.5757 31.96 39.3357 32.2 40.2424 32.2C41.149 32.2 41.909 31.96 42.5224 31.48C43.1357 31 43.4424 30.3867 43.4424 29.64V29.6C43.4424 28.9067 43.1357 28.3333 42.5224 27.88C41.9224 27.4133 41.1624 27.18 40.2424 27.18C39.3224 27.18 38.5557 27.4133 37.9424 27.88C37.3424 28.3333 37.0424 28.9067 37.0424 29.6V29.64C37.0424 30.3867 37.349 31 37.9624 31.48ZM37.5624 38.06C38.229 38.5667 39.1224 38.82 40.2424 38.82C41.3624 38.82 42.249 38.5667 42.9024 38.06C43.569 37.5533 43.9024 36.9333 43.9024 36.2V36.16C43.9024 35.4 43.549 34.7667 42.8424 34.26C42.1357 33.7533 41.269 33.5 40.2424 33.5C39.2157 33.5 38.349 33.7533 37.6424 34.26C36.9357 34.7667 36.5824 35.4 36.5824 36.16V36.2C36.5824 36.9333 36.909 37.5533 37.5624 38.06Z" fill="#2E3777"/>
</svg>
