<svg width="48" height="48" viewBox="0 0 48 48" fill="none" xmlns="http://www.w3.org/2000/svg">
<circle cx="23.9287" cy="5" r="5" fill="#2E3777"/>
<path d="M1.74418 40V38.78L6.82418 34.3C7.91751 33.3267 8.67751 32.5267 9.10418 31.9C9.53085 31.26 9.74418 30.5933 9.74418 29.9C9.74418 29.1 9.47085 28.4533 8.92418 27.96C8.37751 27.4667 7.71085 27.22 6.92418 27.22C6.15085 27.22 5.47751 27.4133 4.90418 27.8C4.33085 28.1867 3.75085 28.7933 3.16418 29.62L2.00418 28.78C2.71085 27.7533 3.43085 27 4.16418 26.52C4.91085 26.04 5.87085 25.8 7.04418 25.8C8.29751 25.8 9.33085 26.1733 10.1442 26.92C10.9708 27.6667 11.3842 28.6133 11.3842 29.76V29.8C11.3842 30.7733 11.1242 31.64 10.6042 32.4C10.0842 33.1467 9.16418 34.0933 7.84418 35.24L4.10418 38.56H11.5242V40H1.74418ZM24.1768 38.14C23.0835 39.54 21.6568 40.24 19.8968 40.24C18.1368 40.24 16.7102 39.5467 15.6168 38.16C14.5368 36.76 13.9968 35.0533 13.9968 33.04V33C13.9968 30.9867 14.5435 29.28 15.6368 27.88C16.7435 26.4667 18.1768 25.76 19.9368 25.76C21.6968 25.76 23.1168 26.46 24.1968 27.86C25.2768 29.2467 25.8168 30.9467 25.8168 32.96V33C25.8168 35.0133 25.2702 36.7267 24.1768 38.14ZM16.8168 37.1C17.6168 38.2333 18.6568 38.8 19.9368 38.8C21.2168 38.8 22.2435 38.24 23.0168 37.12C23.7902 36 24.1768 34.64 24.1768 33.04V33C24.1768 31.4133 23.7768 30.0533 22.9768 28.92C22.1902 27.7733 21.1635 27.2 19.8968 27.2C18.6302 27.2 17.6035 27.76 16.8168 28.88C16.0302 30 15.6368 31.36 15.6368 32.96V33C15.6368 34.5867 16.0302 35.9533 16.8168 37.1ZM30.5361 40V27.54L27.8961 28.36L27.5161 27.08L30.9361 25.9H32.0961V40H30.5361ZM40.064 38.8C41.3574 38.8 42.3707 38.2267 43.104 37.08C43.8507 35.9333 44.224 34.56 44.224 32.96V32.68C43.264 34.16 41.944 34.9 40.264 34.9C38.824 34.9 37.6507 34.4933 36.744 33.68C35.8374 32.8667 35.384 31.8267 35.384 30.56V30.52C35.384 29.1733 35.8574 28.0467 36.804 27.14C37.7507 26.22 38.9574 25.76 40.424 25.76C41.9174 25.76 43.144 26.24 44.104 27.2C45.264 28.36 45.844 30.1667 45.844 32.62V32.66C45.844 34.8867 45.304 36.7067 44.224 38.12C43.144 39.5333 41.744 40.24 40.024 40.24C38.544 40.24 37.104 39.6667 35.704 38.52L36.624 37.3C37.744 38.3 38.8907 38.8 40.064 38.8ZM40.444 33.54C41.484 33.54 42.324 33.2267 42.964 32.6C43.604 31.96 43.924 31.22 43.924 30.38V30.34C43.924 29.4467 43.5907 28.6933 42.924 28.08C42.2574 27.4667 41.404 27.16 40.364 27.16C39.3507 27.16 38.5374 27.48 37.924 28.12C37.3107 28.76 37.004 29.5333 37.004 30.44V30.48C37.004 31.3733 37.324 32.1067 37.964 32.68C38.604 33.2533 39.4307 33.54 40.444 33.54Z" fill="#2E3777"/>
</svg>
