<svg width="47" height="48" viewBox="0 0 47 48" fill="none" xmlns="http://www.w3.org/2000/svg">
<circle cx="23.2861" cy="5" r="5" fill="#2E3777"/>
<path d="M1.63871 40V38.78L6.71871 34.3C7.81204 33.3267 8.57204 32.5267 8.99871 31.9C9.42538 31.26 9.63871 30.5933 9.63871 29.9C9.63871 29.1 9.36538 28.4533 8.81871 27.96C8.27204 27.4667 7.60538 27.22 6.81871 27.22C6.04538 27.22 5.37204 27.4133 4.79871 27.8C4.22538 28.1867 3.64538 28.7933 3.05871 29.62L1.89871 28.78C2.60538 27.7533 3.32538 27 4.05871 26.52C4.80538 26.04 5.76538 25.8 6.93871 25.8C8.19204 25.8 9.22538 26.1733 10.0387 26.92C10.8654 27.6667 11.2787 28.6133 11.2787 29.76V29.8C11.2787 30.7733 11.0187 31.64 10.4987 32.4C9.97871 33.1467 9.05871 34.0933 7.73871 35.24L3.99871 38.56H11.4187V40H1.63871ZM24.0714 38.14C22.978 39.54 21.5514 40.24 19.7914 40.24C18.0314 40.24 16.6047 39.5467 15.5114 38.16C14.4314 36.76 13.8914 35.0533 13.8914 33.04V33C13.8914 30.9867 14.438 29.28 15.5314 27.88C16.638 26.4667 18.0714 25.76 19.8314 25.76C21.5914 25.76 23.0114 26.46 24.0914 27.86C25.1714 29.2467 25.7114 30.9467 25.7114 32.96V33C25.7114 35.0133 25.1647 36.7267 24.0714 38.14ZM16.7114 37.1C17.5114 38.2333 18.5514 38.8 19.8314 38.8C21.1114 38.8 22.138 38.24 22.9114 37.12C23.6847 36 24.0714 34.64 24.0714 33.04V33C24.0714 31.4133 23.6714 30.0533 22.8714 28.92C22.0847 27.7733 21.058 27.2 19.7914 27.2C18.5247 27.2 17.498 27.76 16.7114 28.88C15.9247 30 15.5314 31.36 15.5314 32.96V33C15.5314 34.5867 15.9247 35.9533 16.7114 37.1ZM27.7129 40V38.78L32.7929 34.3C33.8863 33.3267 34.6463 32.5267 35.0729 31.9C35.4996 31.26 35.7129 30.5933 35.7129 29.9C35.7129 29.1 35.4396 28.4533 34.8929 27.96C34.3463 27.4667 33.6796 27.22 32.8929 27.22C32.1196 27.22 31.4463 27.4133 30.8729 27.8C30.2996 28.1867 29.7196 28.7933 29.1329 29.62L27.9729 28.78C28.6796 27.7533 29.3996 27 30.1329 26.52C30.8796 26.04 31.8396 25.8 33.0129 25.8C34.2663 25.8 35.2996 26.1733 36.1129 26.92C36.9396 27.6667 37.3529 28.6133 37.3529 29.76V29.8C37.3529 30.7733 37.0929 31.64 36.5729 32.4C36.0529 33.1467 35.1329 34.0933 33.8129 35.24L30.0729 38.56H37.4929V40H27.7129ZM42.3056 40V27.54L39.6656 28.36L39.2856 27.08L42.7056 25.9H43.8656V40H42.3056Z" fill="#2E3777"/>
</svg>
