<svg width="52" height="48" viewBox="0 0 52 48" fill="none" xmlns="http://www.w3.org/2000/svg">
<circle cx="25.6426" cy="5" r="5" fill="#B52019"/>
<path d="M1.59281 40V38.78L6.67281 34.3C7.76615 33.3267 8.52615 32.5267 8.95281 31.9C9.37948 31.26 9.59281 30.5933 9.59281 29.9C9.59281 29.1 9.31948 28.4533 8.77281 27.96C8.22615 27.4667 7.55948 27.22 6.77281 27.22C5.99948 27.22 5.32615 27.4133 4.75281 27.8C4.17948 28.1867 3.59948 28.7933 3.01281 29.62L1.85281 28.78C2.55948 27.7533 3.27948 27 4.01281 26.52C4.75948 26.04 5.71948 25.8 6.89281 25.8C8.14615 25.8 9.17948 26.1733 9.99281 26.92C10.8195 27.6667 11.2328 28.6133 11.2328 29.76V29.8C11.2328 30.7733 10.9728 31.64 10.4528 32.4C9.93281 33.1467 9.01281 34.0933 7.69281 35.24L3.95281 38.56H11.3728V40H1.59281ZM24.0255 38.14C22.9321 39.54 21.5055 40.24 19.7455 40.24C17.9855 40.24 16.5588 39.5467 15.4655 38.16C14.3855 36.76 13.8455 35.0533 13.8455 33.04V33C13.8455 30.9867 14.3921 29.28 15.4855 27.88C16.5921 26.4667 18.0255 25.76 19.7855 25.76C21.5455 25.76 22.9655 26.46 24.0455 27.86C25.1255 29.2467 25.6655 30.9467 25.6655 32.96V33C25.6655 35.0133 25.1188 36.7267 24.0255 38.14ZM16.6655 37.1C17.4655 38.2333 18.5055 38.8 19.7855 38.8C21.0655 38.8 22.0921 38.24 22.8655 37.12C23.6388 36 24.0255 34.64 24.0255 33.04V33C24.0255 31.4133 23.6255 30.0533 22.8255 28.92C22.0388 27.7733 21.0121 27.2 19.7455 27.2C18.4788 27.2 17.4521 27.76 16.6655 28.88C15.8788 30 15.4855 31.36 15.4855 32.96V33C15.4855 34.5867 15.8788 35.9533 16.6655 37.1ZM27.667 40V38.78L32.747 34.3C33.8404 33.3267 34.6004 32.5267 35.027 31.9C35.4537 31.26 35.667 30.5933 35.667 29.9C35.667 29.1 35.3937 28.4533 34.847 27.96C34.3004 27.4667 33.6337 27.22 32.847 27.22C32.0737 27.22 31.4004 27.4133 30.827 27.8C30.2537 28.1867 29.6737 28.7933 29.087 29.62L27.927 28.78C28.6337 27.7533 29.3537 27 30.087 26.52C30.8337 26.04 31.7937 25.8 32.967 25.8C34.2204 25.8 35.2537 26.1733 36.067 26.92C36.8937 27.6667 37.307 28.6133 37.307 29.76V29.8C37.307 30.7733 37.047 31.64 36.527 32.4C36.007 33.1467 35.087 34.0933 33.767 35.24L30.027 38.56H37.447V40H27.667ZM39.6397 40V38.78L44.7197 34.3C45.813 33.3267 46.573 32.5267 46.9997 31.9C47.4264 31.26 47.6397 30.5933 47.6397 29.9C47.6397 29.1 47.3664 28.4533 46.8197 27.96C46.273 27.4667 45.6064 27.22 44.8197 27.22C44.0464 27.22 43.373 27.4133 42.7997 27.8C42.2264 28.1867 41.6464 28.7933 41.0597 29.62L39.8997 28.78C40.6064 27.7533 41.3264 27 42.0597 26.52C42.8064 26.04 43.7664 25.8 44.9397 25.8C46.193 25.8 47.2264 26.1733 48.0397 26.92C48.8664 27.6667 49.2797 28.6133 49.2797 29.76V29.8C49.2797 30.7733 49.0197 31.64 48.4997 32.4C47.9797 33.1467 47.0597 34.0933 45.7397 35.24L41.9997 38.56H49.4197V40H39.6397Z" fill="#B52019"/>
</svg>
