<svg width="51" height="48" viewBox="0 0 51 48" fill="none" xmlns="http://www.w3.org/2000/svg">
<circle cx="25.5" cy="5" r="5" fill="#2E3777"/>
<path d="M1.30375 40V38.78L6.38375 34.3C7.47708 33.3267 8.23708 32.5267 8.66375 31.9C9.09042 31.26 9.30375 30.5933 9.30375 29.9C9.30375 29.1 9.03042 28.4533 8.48375 27.96C7.93708 27.4667 7.27042 27.22 6.48375 27.22C5.71042 27.22 5.03708 27.4133 4.46375 27.8C3.89042 28.1867 3.31042 28.7933 2.72375 29.62L1.56375 28.78C2.27042 27.7533 2.99042 27 3.72375 26.52C4.47042 26.04 5.43042 25.8 6.60375 25.8C7.85708 25.8 8.89042 26.1733 9.70375 26.92C10.5304 27.6667 10.9438 28.6133 10.9438 29.76V29.8C10.9438 30.7733 10.6838 31.64 10.1638 32.4C9.64375 33.1467 8.72375 34.0933 7.40375 35.24L3.66375 38.56H11.0838V40H1.30375ZM23.7364 38.14C22.6431 39.54 21.2164 40.24 19.4564 40.24C17.6964 40.24 16.2697 39.5467 15.1764 38.16C14.0964 36.76 13.5564 35.0533 13.5564 33.04V33C13.5564 30.9867 14.1031 29.28 15.1964 27.88C16.3031 26.4667 17.7364 25.76 19.4964 25.76C21.2564 25.76 22.6764 26.46 23.7564 27.86C24.8364 29.2467 25.3764 30.9467 25.3764 32.96V33C25.3764 35.0133 24.8297 36.7267 23.7364 38.14ZM16.3764 37.1C17.1764 38.2333 18.2164 38.8 19.4964 38.8C20.7764 38.8 21.8031 38.24 22.5764 37.12C23.3497 36 23.7364 34.64 23.7364 33.04V33C23.7364 31.4133 23.3364 30.0533 22.5364 28.92C21.7497 27.7733 20.7231 27.2 19.4564 27.2C18.1897 27.2 17.1631 27.76 16.3764 28.88C15.5897 30 15.1964 31.36 15.1964 32.96V33C15.1964 34.5867 15.5897 35.9533 16.3764 37.1ZM27.378 40V38.78L32.458 34.3C33.5513 33.3267 34.3113 32.5267 34.738 31.9C35.1646 31.26 35.378 30.5933 35.378 29.9C35.378 29.1 35.1046 28.4533 34.558 27.96C34.0113 27.4667 33.3446 27.22 32.558 27.22C31.7846 27.22 31.1113 27.4133 30.538 27.8C29.9646 28.1867 29.3846 28.7933 28.798 29.62L27.638 28.78C28.3446 27.7533 29.0646 27 29.798 26.52C30.5446 26.04 31.5046 25.8 32.678 25.8C33.9313 25.8 34.9646 26.1733 35.778 26.92C36.6046 27.6667 37.018 28.6133 37.018 29.76V29.8C37.018 30.7733 36.758 31.64 36.238 32.4C35.718 33.1467 34.798 34.0933 33.478 35.24L29.738 38.56H37.158V40H27.378ZM44.6106 40.24C42.3973 40.24 40.6573 39.4067 39.3906 37.74L40.5306 36.72C41.664 38.1067 43.0306 38.8 44.6306 38.8C45.4973 38.8 46.224 38.5533 46.8106 38.06C47.3973 37.5533 47.6906 36.8933 47.6906 36.08V36.04C47.6906 35.1867 47.3306 34.5267 46.6106 34.06C45.8906 33.58 44.944 33.34 43.7706 33.34H42.8706L42.5506 32.4L46.9706 27.42H40.1306V26H49.0706V27.16L44.6706 32.04C46.0173 32.16 47.124 32.5467 47.9906 33.2C48.8573 33.84 49.2906 34.7667 49.2906 35.98V36.02C49.2906 37.2467 48.8373 38.26 47.9306 39.06C47.0373 39.8467 45.9306 40.24 44.6106 40.24Z" fill="#2E3777"/>
</svg>
