<svg width="1360" height="48" viewBox="0 0 1360 48" fill="none" xmlns="http://www.w3.org/2000/svg">
<line x1="24" y1="4" x2="1333" y2="4.00012" stroke="#2E3777" stroke-width="2" stroke-linecap="round" stroke-dasharray="0.1 8"/>
<circle cx="25.5" cy="5" r="5" fill="#2E3777"/>
<path d="M1.30375 40V38.78L6.38375 34.3C7.47708 33.3267 8.23708 32.5267 8.66375 31.9C9.09042 31.26 9.30375 30.5933 9.30375 29.9C9.30375 29.1 9.03042 28.4533 8.48375 27.96C7.93708 27.4667 7.27042 27.22 6.48375 27.22C5.71042 27.22 5.03708 27.4133 4.46375 27.8C3.89042 28.1867 3.31042 28.7933 2.72375 29.62L1.56375 28.78C2.27042 27.7533 2.99042 27 3.72375 26.52C4.47042 26.04 5.43042 25.8 6.60375 25.8C7.85708 25.8 8.89042 26.1733 9.70375 26.92C10.5304 27.6667 10.9438 28.6133 10.9438 29.76V29.8C10.9438 30.7733 10.6838 31.64 10.1638 32.4C9.64375 33.1467 8.72375 34.0933 7.40375 35.24L3.66375 38.56H11.0838V40H1.30375ZM23.7364 38.14C22.6431 39.54 21.2164 40.24 19.4564 40.24C17.6964 40.24 16.2697 39.5467 15.1764 38.16C14.0964 36.76 13.5564 35.0533 13.5564 33.04V33C13.5564 30.9867 14.1031 29.28 15.1964 27.88C16.3031 26.4667 17.7364 25.76 19.4964 25.76C21.2564 25.76 22.6764 26.46 23.7564 27.86C24.8364 29.2467 25.3764 30.9467 25.3764 32.96V33C25.3764 35.0133 24.8297 36.7267 23.7364 38.14ZM16.3764 37.1C17.1764 38.2333 18.2164 38.8 19.4964 38.8C20.7764 38.8 21.8031 38.24 22.5764 37.12C23.3497 36 23.7364 34.64 23.7364 33.04V33C23.7364 31.4133 23.3364 30.0533 22.5364 28.92C21.7497 27.7733 20.7231 27.2 19.4564 27.2C18.1897 27.2 17.1631 27.76 16.3764 28.88C15.5897 30 15.1964 31.36 15.1964 32.96V33C15.1964 34.5867 15.5897 35.9533 16.3764 37.1ZM27.378 40V38.78L32.458 34.3C33.5513 33.3267 34.3113 32.5267 34.738 31.9C35.1646 31.26 35.378 30.5933 35.378 29.9C35.378 29.1 35.1046 28.4533 34.558 27.96C34.0113 27.4667 33.3446 27.22 32.558 27.22C31.7846 27.22 31.1113 27.4133 30.538 27.8C29.9646 28.1867 29.3846 28.7933 28.798 29.62L27.638 28.78C28.3446 27.7533 29.0646 27 29.798 26.52C30.5446 26.04 31.5046 25.8 32.678 25.8C33.9313 25.8 34.9646 26.1733 35.778 26.92C36.6046 27.6667 37.018 28.6133 37.018 29.76V29.8C37.018 30.7733 36.758 31.64 36.238 32.4C35.718 33.1467 34.798 34.0933 33.478 35.24L29.738 38.56H37.158V40H27.378ZM44.6106 40.24C42.3973 40.24 40.6573 39.4067 39.3906 37.74L40.5306 36.72C41.664 38.1067 43.0306 38.8 44.6306 38.8C45.4973 38.8 46.224 38.5533 46.8106 38.06C47.3973 37.5533 47.6906 36.8933 47.6906 36.08V36.04C47.6906 35.1867 47.3306 34.5267 46.6106 34.06C45.8906 33.58 44.944 33.34 43.7706 33.34H42.8706L42.5506 32.4L46.9706 27.42H40.1306V26H49.0706V27.16L44.6706 32.04C46.0173 32.16 47.124 32.5467 47.9906 33.2C48.8573 33.84 49.2906 34.7667 49.2906 35.98V36.02C49.2906 37.2467 48.8373 38.26 47.9306 39.06C47.0373 39.8467 45.9306 40.24 44.6106 40.24Z" fill="#2E3777"/>
<circle cx="214.643" cy="5" r="5" fill="#B52019"/>
<path d="M190.593 40V38.78L195.673 34.3C196.766 33.3267 197.526 32.5267 197.953 31.9C198.379 31.26 198.593 30.5933 198.593 29.9C198.593 29.1 198.319 28.4533 197.773 27.96C197.226 27.4667 196.559 27.22 195.773 27.22C194.999 27.22 194.326 27.4133 193.753 27.8C193.179 28.1867 192.599 28.7933 192.013 29.62L190.853 28.78C191.559 27.7533 192.279 27 193.013 26.52C193.759 26.04 194.719 25.8 195.893 25.8C197.146 25.8 198.179 26.1733 198.993 26.92C199.819 27.6667 200.233 28.6133 200.233 29.76V29.8C200.233 30.7733 199.973 31.64 199.453 32.4C198.933 33.1467 198.013 34.0933 196.693 35.24L192.953 38.56H200.373V40H190.593ZM213.025 38.14C211.932 39.54 210.505 40.24 208.745 40.24C206.985 40.24 205.559 39.5467 204.465 38.16C203.385 36.76 202.845 35.0533 202.845 33.04V33C202.845 30.9867 203.392 29.28 204.485 27.88C205.592 26.4667 207.025 25.76 208.785 25.76C210.545 25.76 211.965 26.46 213.045 27.86C214.125 29.2467 214.665 30.9467 214.665 32.96V33C214.665 35.0133 214.119 36.7267 213.025 38.14ZM205.665 37.1C206.465 38.2333 207.505 38.8 208.785 38.8C210.065 38.8 211.092 38.24 211.865 37.12C212.639 36 213.025 34.64 213.025 33.04V33C213.025 31.4133 212.625 30.0533 211.825 28.92C211.039 27.7733 210.012 27.2 208.745 27.2C207.479 27.2 206.452 27.76 205.665 28.88C204.879 30 204.485 31.36 204.485 32.96V33C204.485 34.5867 204.879 35.9533 205.665 37.1ZM216.667 40V38.78L221.747 34.3C222.84 33.3267 223.6 32.5267 224.027 31.9C224.454 31.26 224.667 30.5933 224.667 29.9C224.667 29.1 224.394 28.4533 223.847 27.96C223.3 27.4667 222.634 27.22 221.847 27.22C221.074 27.22 220.4 27.4133 219.827 27.8C219.254 28.1867 218.674 28.7933 218.087 29.62L216.927 28.78C217.634 27.7533 218.354 27 219.087 26.52C219.834 26.04 220.794 25.8 221.967 25.8C223.22 25.8 224.254 26.1733 225.067 26.92C225.894 27.6667 226.307 28.6133 226.307 29.76V29.8C226.307 30.7733 226.047 31.64 225.527 32.4C225.007 33.1467 224.087 34.0933 222.767 35.24L219.027 38.56H226.447V40H216.667ZM228.64 40V38.78L233.72 34.3C234.813 33.3267 235.573 32.5267 236 31.9C236.426 31.26 236.64 30.5933 236.64 29.9C236.64 29.1 236.366 28.4533 235.82 27.96C235.273 27.4667 234.606 27.22 233.82 27.22C233.046 27.22 232.373 27.4133 231.8 27.8C231.226 28.1867 230.646 28.7933 230.06 29.62L228.9 28.78C229.606 27.7533 230.326 27 231.06 26.52C231.806 26.04 232.766 25.8 233.94 25.8C235.193 25.8 236.226 26.1733 237.04 26.92C237.866 27.6667 238.28 28.6133 238.28 29.76V29.8C238.28 30.7733 238.02 31.64 237.5 32.4C236.98 33.1467 236.06 34.0933 234.74 35.24L231 38.56H238.42V40H228.64Z" fill="#B52019"/>
<circle cx="401.286" cy="5" r="5" fill="#2E3777"/>
<path d="M379.639 40V38.78L384.719 34.3C385.812 33.3267 386.572 32.5267 386.999 31.9C387.425 31.26 387.639 30.5933 387.639 29.9C387.639 29.1 387.365 28.4533 386.819 27.96C386.272 27.4667 385.605 27.22 384.819 27.22C384.045 27.22 383.372 27.4133 382.799 27.8C382.225 28.1867 381.645 28.7933 381.059 29.62L379.899 28.78C380.605 27.7533 381.325 27 382.059 26.52C382.805 26.04 383.765 25.8 384.939 25.8C386.192 25.8 387.225 26.1733 388.039 26.92C388.865 27.6667 389.279 28.6133 389.279 29.76V29.8C389.279 30.7733 389.019 31.64 388.499 32.4C387.979 33.1467 387.059 34.0933 385.739 35.24L381.999 38.56H389.419V40H379.639ZM402.071 38.14C400.978 39.54 399.551 40.24 397.791 40.24C396.031 40.24 394.605 39.5467 393.511 38.16C392.431 36.76 391.891 35.0533 391.891 33.04V33C391.891 30.9867 392.438 29.28 393.531 27.88C394.638 26.4667 396.071 25.76 397.831 25.76C399.591 25.76 401.011 26.46 402.091 27.86C403.171 29.2467 403.711 30.9467 403.711 32.96V33C403.711 35.0133 403.165 36.7267 402.071 38.14ZM394.711 37.1C395.511 38.2333 396.551 38.8 397.831 38.8C399.111 38.8 400.138 38.24 400.911 37.12C401.685 36 402.071 34.64 402.071 33.04V33C402.071 31.4133 401.671 30.0533 400.871 28.92C400.085 27.7733 399.058 27.2 397.791 27.2C396.525 27.2 395.498 27.76 394.711 28.88C393.925 30 393.531 31.36 393.531 32.96V33C393.531 34.5867 393.925 35.9533 394.711 37.1ZM405.713 40V38.78L410.793 34.3C411.886 33.3267 412.646 32.5267 413.073 31.9C413.5 31.26 413.713 30.5933 413.713 29.9C413.713 29.1 413.44 28.4533 412.893 27.96C412.346 27.4667 411.68 27.22 410.893 27.22C410.12 27.22 409.446 27.4133 408.873 27.8C408.3 28.1867 407.72 28.7933 407.133 29.62L405.973 28.78C406.68 27.7533 407.4 27 408.133 26.52C408.88 26.04 409.84 25.8 411.013 25.8C412.266 25.8 413.3 26.1733 414.113 26.92C414.94 27.6667 415.353 28.6133 415.353 29.76V29.8C415.353 30.7733 415.093 31.64 414.573 32.4C414.053 33.1467 413.133 34.0933 411.813 35.24L408.073 38.56H415.493V40H405.713ZM420.306 40V27.54L417.666 28.36L417.286 27.08L420.706 25.9H421.866V40H420.306Z" fill="#2E3777"/>
<circle cx="585.929" cy="5" r="5" fill="#2E3777"/>
<path d="M563.744 40V38.78L568.824 34.3C569.918 33.3267 570.678 32.5267 571.104 31.9C571.531 31.26 571.744 30.5933 571.744 29.9C571.744 29.1 571.471 28.4533 570.924 27.96C570.378 27.4667 569.711 27.22 568.924 27.22C568.151 27.22 567.478 27.4133 566.904 27.8C566.331 28.1867 565.751 28.7933 565.164 29.62L564.004 28.78C564.711 27.7533 565.431 27 566.164 26.52C566.911 26.04 567.871 25.8 569.044 25.8C570.298 25.8 571.331 26.1733 572.144 26.92C572.971 27.6667 573.384 28.6133 573.384 29.76V29.8C573.384 30.7733 573.124 31.64 572.604 32.4C572.084 33.1467 571.164 34.0933 569.844 35.24L566.104 38.56H573.524V40H563.744ZM586.177 38.14C585.084 39.54 583.657 40.24 581.897 40.24C580.137 40.24 578.71 39.5467 577.617 38.16C576.537 36.76 575.997 35.0533 575.997 33.04V33C575.997 30.9867 576.544 29.28 577.637 27.88C578.744 26.4667 580.177 25.76 581.937 25.76C583.697 25.76 585.117 26.46 586.197 27.86C587.277 29.2467 587.817 30.9467 587.817 32.96V33C587.817 35.0133 587.27 36.7267 586.177 38.14ZM578.817 37.1C579.617 38.2333 580.657 38.8 581.937 38.8C583.217 38.8 584.244 38.24 585.017 37.12C585.79 36 586.177 34.64 586.177 33.04V33C586.177 31.4133 585.777 30.0533 584.977 28.92C584.19 27.7733 583.164 27.2 581.897 27.2C580.63 27.2 579.604 27.76 578.817 28.88C578.03 30 577.637 31.36 577.637 32.96V33C577.637 34.5867 578.03 35.9533 578.817 37.1ZM592.536 40V27.54L589.896 28.36L589.516 27.08L592.936 25.9H594.096V40H592.536ZM602.064 38.8C603.357 38.8 604.371 38.2267 605.104 37.08C605.851 35.9333 606.224 34.56 606.224 32.96V32.68C605.264 34.16 603.944 34.9 602.264 34.9C600.824 34.9 599.651 34.4933 598.744 33.68C597.837 32.8667 597.384 31.8267 597.384 30.56V30.52C597.384 29.1733 597.857 28.0467 598.804 27.14C599.751 26.22 600.957 25.76 602.424 25.76C603.917 25.76 605.144 26.24 606.104 27.2C607.264 28.36 607.844 30.1667 607.844 32.62V32.66C607.844 34.8867 607.304 36.7067 606.224 38.12C605.144 39.5333 603.744 40.24 602.024 40.24C600.544 40.24 599.104 39.6667 597.704 38.52L598.624 37.3C599.744 38.3 600.891 38.8 602.064 38.8ZM602.444 33.54C603.484 33.54 604.324 33.2267 604.964 32.6C605.604 31.96 605.924 31.22 605.924 30.38V30.34C605.924 29.4467 605.591 28.6933 604.924 28.08C604.257 27.4667 603.404 27.16 602.364 27.16C601.351 27.16 600.537 27.48 599.924 28.12C599.311 28.76 599.004 29.5333 599.004 30.44V30.48C599.004 31.3733 599.324 32.1067 599.964 32.68C600.604 33.2533 601.431 33.54 602.444 33.54Z" fill="#2E3777"/>
<circle cx="770.571" cy="5" r="5" fill="#2E3777"/>
<path d="M748.563 40V38.78L753.643 34.3C754.736 33.3267 755.496 32.5267 755.923 31.9C756.349 31.26 756.563 30.5933 756.563 29.9C756.563 29.1 756.289 28.4533 755.743 27.96C755.196 27.4667 754.529 27.22 753.743 27.22C752.969 27.22 752.296 27.4133 751.723 27.8C751.149 28.1867 750.569 28.7933 749.983 29.62L748.823 28.78C749.529 27.7533 750.249 27 750.983 26.52C751.729 26.04 752.689 25.8 753.863 25.8C755.116 25.8 756.149 26.1733 756.963 26.92C757.789 27.6667 758.203 28.6133 758.203 29.76V29.8C758.203 30.7733 757.943 31.64 757.423 32.4C756.903 33.1467 755.983 34.0933 754.663 35.24L750.923 38.56H758.343V40H748.563ZM770.995 38.14C769.902 39.54 768.475 40.24 766.715 40.24C764.955 40.24 763.529 39.5467 762.435 38.16C761.355 36.76 760.815 35.0533 760.815 33.04V33C760.815 30.9867 761.362 29.28 762.455 27.88C763.562 26.4667 764.995 25.76 766.755 25.76C768.515 25.76 769.935 26.46 771.015 27.86C772.095 29.2467 772.635 30.9467 772.635 32.96V33C772.635 35.0133 772.089 36.7267 770.995 38.14ZM763.635 37.1C764.435 38.2333 765.475 38.8 766.755 38.8C768.035 38.8 769.062 38.24 769.835 37.12C770.609 36 770.995 34.64 770.995 33.04V33C770.995 31.4133 770.595 30.0533 769.795 28.92C769.009 27.7733 767.982 27.2 766.715 27.2C765.449 27.2 764.422 27.76 763.635 28.88C762.849 30 762.455 31.36 762.455 32.96V33C762.455 34.5867 762.849 35.9533 763.635 37.1ZM777.354 40V27.54L774.714 28.36L774.334 27.08L777.754 25.9H778.914V40H777.354ZM791.002 39.1C790.002 39.8333 788.749 40.2 787.242 40.2C785.736 40.2 784.482 39.8333 783.482 39.1C782.482 38.3533 781.982 37.4 781.982 36.24V36.2C781.982 35.4 782.242 34.7133 782.762 34.14C783.282 33.5533 783.982 33.0933 784.862 32.76C783.262 32.0267 782.462 30.9533 782.462 29.54V29.5C782.462 28.4467 782.929 27.5667 783.862 26.86C784.809 26.1533 785.936 25.8 787.242 25.8C788.549 25.8 789.669 26.1533 790.602 26.86C791.549 27.5667 792.022 28.4467 792.022 29.5V29.54C792.022 30.9533 791.222 32.0267 789.622 32.76C790.502 33.0933 791.202 33.5467 791.722 34.12C792.242 34.6933 792.502 35.38 792.502 36.18V36.22C792.502 37.3933 792.002 38.3533 791.002 39.1ZM784.962 31.48C785.576 31.96 786.336 32.2 787.242 32.2C788.149 32.2 788.909 31.96 789.522 31.48C790.136 31 790.442 30.3867 790.442 29.64V29.6C790.442 28.9067 790.136 28.3333 789.522 27.88C788.922 27.4133 788.162 27.18 787.242 27.18C786.322 27.18 785.556 27.4133 784.942 27.88C784.342 28.3333 784.042 28.9067 784.042 29.6V29.64C784.042 30.3867 784.349 31 784.962 31.48ZM784.562 38.06C785.229 38.5667 786.122 38.82 787.242 38.82C788.362 38.82 789.249 38.5667 789.902 38.06C790.569 37.5533 790.902 36.9333 790.902 36.2V36.16C790.902 35.4 790.549 34.7667 789.842 34.26C789.136 33.7533 788.269 33.5 787.242 33.5C786.216 33.5 785.349 33.7533 784.642 34.26C783.936 34.7667 783.582 35.4 783.582 36.16V36.2C783.582 36.9333 783.909 37.5533 784.562 38.06Z" fill="#2E3777"/>
<circle cx="954.714" cy="5" r="5" fill="#2E3777"/>
<path d="M933.047 40V38.78L938.127 34.3C939.22 33.3267 939.98 32.5267 940.407 31.9C940.834 31.26 941.047 30.5933 941.047 29.9C941.047 29.1 940.774 28.4533 940.227 27.96C939.68 27.4667 939.014 27.22 938.227 27.22C937.454 27.22 936.78 27.4133 936.207 27.8C935.634 28.1867 935.054 28.7933 934.467 29.62L933.307 28.78C934.014 27.7533 934.734 27 935.467 26.52C936.214 26.04 937.174 25.8 938.347 25.8C939.6 25.8 940.634 26.1733 941.447 26.92C942.274 27.6667 942.687 28.6133 942.687 29.76V29.8C942.687 30.7733 942.427 31.64 941.907 32.4C941.387 33.1467 940.467 34.0933 939.147 35.24L935.407 38.56H942.827V40H933.047ZM955.48 38.14C954.386 39.54 952.96 40.24 951.2 40.24C949.44 40.24 948.013 39.5467 946.92 38.16C945.84 36.76 945.3 35.0533 945.3 33.04V33C945.3 30.9867 945.846 29.28 946.94 27.88C948.046 26.4667 949.48 25.76 951.24 25.76C953 25.76 954.42 26.46 955.5 27.86C956.58 29.2467 957.12 30.9467 957.12 32.96V33C957.12 35.0133 956.573 36.7267 955.48 38.14ZM948.12 37.1C948.92 38.2333 949.96 38.8 951.24 38.8C952.52 38.8 953.546 38.24 954.32 37.12C955.093 36 955.48 34.64 955.48 33.04V33C955.48 31.4133 955.08 30.0533 954.28 28.92C953.493 27.7733 952.466 27.2 951.2 27.2C949.933 27.2 948.906 27.76 948.12 28.88C947.333 30 946.94 31.36 946.94 32.96V33C946.94 34.5867 947.333 35.9533 948.12 37.1ZM961.839 40V27.54L959.199 28.36L958.819 27.08L962.239 25.9H963.399V40H961.839ZM968.167 40L974.487 27.44H966.787V26H976.287V27.18L969.927 40H968.167Z" fill="#2E3777"/>
<circle cx="1142.86" cy="5" r="5" fill="#2E3777"/>
<path d="M1117.24 40V38.78L1122.32 34.3C1123.41 33.3267 1124.17 32.5267 1124.6 31.9C1125.02 31.26 1125.24 30.5933 1125.24 29.9C1125.24 29.1 1124.96 28.4533 1124.42 27.96C1123.87 27.4667 1123.2 27.22 1122.42 27.22C1121.64 27.22 1120.97 27.4133 1120.4 27.8C1119.82 28.1867 1119.24 28.7933 1118.66 29.62L1117.5 28.78C1118.2 27.7533 1118.92 27 1119.66 26.52C1120.4 26.04 1121.36 25.8 1122.54 25.8C1123.79 25.8 1124.82 26.1733 1125.64 26.92C1126.46 27.6667 1126.88 28.6133 1126.88 29.76V29.8C1126.88 30.7733 1126.62 31.64 1126.1 32.4C1125.58 33.1467 1124.66 34.0933 1123.34 35.24L1119.6 38.56H1127.02V40H1117.24ZM1139.67 38.14C1138.57 39.54 1137.15 40.24 1135.39 40.24C1133.63 40.24 1132.2 39.5467 1131.11 38.16C1130.03 36.76 1129.49 35.0533 1129.49 33.04V33C1129.49 30.9867 1130.03 29.28 1131.13 27.88C1132.23 26.4667 1133.67 25.76 1135.43 25.76C1137.19 25.76 1138.61 26.46 1139.69 27.86C1140.77 29.2467 1141.31 30.9467 1141.31 32.96V33C1141.31 35.0133 1140.76 36.7267 1139.67 38.14ZM1132.31 37.1C1133.11 38.2333 1134.15 38.8 1135.43 38.8C1136.71 38.8 1137.73 38.24 1138.51 37.12C1139.28 36 1139.67 34.64 1139.67 33.04V33C1139.67 31.4133 1139.27 30.0533 1138.47 28.92C1137.68 27.7733 1136.65 27.2 1135.39 27.2C1134.12 27.2 1133.09 27.76 1132.31 28.88C1131.52 30 1131.13 31.36 1131.13 32.96V33C1131.13 34.5867 1131.52 35.9533 1132.31 37.1ZM1153.96 38.14C1152.87 39.54 1151.44 40.24 1149.68 40.24C1147.92 40.24 1146.5 39.5467 1145.4 38.16C1144.32 36.76 1143.78 35.0533 1143.78 33.04V33C1143.78 30.9867 1144.33 29.28 1145.42 27.88C1146.53 26.4667 1147.96 25.76 1149.72 25.76C1151.48 25.76 1152.9 26.46 1153.98 27.86C1155.06 29.2467 1155.6 30.9467 1155.6 32.96V33C1155.6 35.0133 1155.06 36.7267 1153.96 38.14ZM1146.6 37.1C1147.4 38.2333 1148.44 38.8 1149.72 38.8C1151 38.8 1152.03 38.24 1152.8 37.12C1153.58 36 1153.96 34.64 1153.96 33.04V33C1153.96 31.4133 1153.56 30.0533 1152.76 28.92C1151.98 27.7733 1150.95 27.2 1149.68 27.2C1148.42 27.2 1147.39 27.76 1146.6 28.88C1145.82 30 1145.42 31.36 1145.42 32.96V33C1145.42 34.5867 1145.82 35.9533 1146.6 37.1ZM1166.9 39.1C1165.9 39.8333 1164.65 40.2 1163.14 40.2C1161.64 40.2 1160.38 39.8333 1159.38 39.1C1158.38 38.3533 1157.88 37.4 1157.88 36.24V36.2C1157.88 35.4 1158.14 34.7133 1158.66 34.14C1159.18 33.5533 1159.88 33.0933 1160.76 32.76C1159.16 32.0267 1158.36 30.9533 1158.36 29.54V29.5C1158.36 28.4467 1158.83 27.5667 1159.76 26.86C1160.71 26.1533 1161.84 25.8 1163.14 25.8C1164.45 25.8 1165.57 26.1533 1166.5 26.86C1167.45 27.5667 1167.92 28.4467 1167.92 29.5V29.54C1167.92 30.9533 1167.12 32.0267 1165.52 32.76C1166.4 33.0933 1167.1 33.5467 1167.62 34.12C1168.14 34.6933 1168.4 35.38 1168.4 36.18V36.22C1168.4 37.3933 1167.9 38.3533 1166.9 39.1ZM1160.86 31.48C1161.48 31.96 1162.24 32.2 1163.14 32.2C1164.05 32.2 1164.81 31.96 1165.42 31.48C1166.04 31 1166.34 30.3867 1166.34 29.64V29.6C1166.34 28.9067 1166.04 28.3333 1165.42 27.88C1164.82 27.4133 1164.06 27.18 1163.14 27.18C1162.22 27.18 1161.46 27.4133 1160.84 27.88C1160.24 28.3333 1159.94 28.9067 1159.94 29.6V29.64C1159.94 30.3867 1160.25 31 1160.86 31.48ZM1160.46 38.06C1161.13 38.5667 1162.02 38.82 1163.14 38.82C1164.26 38.82 1165.15 38.5667 1165.8 38.06C1166.47 37.5533 1166.8 36.9333 1166.8 36.2V36.16C1166.8 35.4 1166.45 34.7667 1165.74 34.26C1165.04 33.7533 1164.17 33.5 1163.14 33.5C1162.12 33.5 1161.25 33.7533 1160.54 34.26C1159.84 34.7667 1159.48 35.4 1159.48 36.16V36.2C1159.48 36.9333 1159.81 37.5533 1160.46 38.06Z" fill="#2E3777"/>
<circle cx="1334" cy="5" r="5" fill="#2E3777"/>
<path d="M1309.01 40V38.78L1314.09 34.3C1315.19 33.3267 1315.95 32.5267 1316.37 31.9C1316.8 31.26 1317.01 30.5933 1317.01 29.9C1317.01 29.1 1316.74 28.4533 1316.19 27.96C1315.65 27.4667 1314.98 27.22 1314.19 27.22C1313.42 27.22 1312.75 27.4133 1312.17 27.8C1311.6 28.1867 1311.02 28.7933 1310.43 29.62L1309.27 28.78C1309.98 27.7533 1310.7 27 1311.43 26.52C1312.18 26.04 1313.14 25.8 1314.31 25.8C1315.57 25.8 1316.6 26.1733 1317.41 26.92C1318.24 27.6667 1318.65 28.6133 1318.65 29.76V29.8C1318.65 30.7733 1318.39 31.64 1317.87 32.4C1317.35 33.1467 1316.43 34.0933 1315.11 35.24L1311.37 38.56H1318.79V40H1309.01ZM1331.45 38.14C1330.35 39.54 1328.93 40.24 1327.17 40.24C1325.41 40.24 1323.98 39.5467 1322.89 38.16C1321.81 36.76 1321.27 35.0533 1321.27 33.04V33C1321.27 30.9867 1321.81 29.28 1322.91 27.88C1324.01 26.4667 1325.45 25.76 1327.21 25.76C1328.97 25.76 1330.39 26.46 1331.47 27.86C1332.55 29.2467 1333.09 30.9467 1333.09 32.96V33C1333.09 35.0133 1332.54 36.7267 1331.45 38.14ZM1324.09 37.1C1324.89 38.2333 1325.93 38.8 1327.21 38.8C1328.49 38.8 1329.51 38.24 1330.29 37.12C1331.06 36 1331.45 34.64 1331.45 33.04V33C1331.45 31.4133 1331.05 30.0533 1330.25 28.92C1329.46 27.7733 1328.43 27.2 1327.17 27.2C1325.9 27.2 1324.87 27.76 1324.09 28.88C1323.3 30 1322.91 31.36 1322.91 32.96V33C1322.91 34.5867 1323.3 35.9533 1324.09 37.1ZM1345.74 38.14C1344.65 39.54 1343.22 40.24 1341.46 40.24C1339.7 40.24 1338.28 39.5467 1337.18 38.16C1336.1 36.76 1335.56 35.0533 1335.56 33.04V33C1335.56 30.9867 1336.11 29.28 1337.2 27.88C1338.31 26.4667 1339.74 25.76 1341.5 25.76C1343.26 25.76 1344.68 26.46 1345.76 27.86C1346.84 29.2467 1347.38 30.9467 1347.38 32.96V33C1347.38 35.0133 1346.84 36.7267 1345.74 38.14ZM1338.38 37.1C1339.18 38.2333 1340.22 38.8 1341.5 38.8C1342.78 38.8 1343.81 38.24 1344.58 37.12C1345.36 36 1345.74 34.64 1345.74 33.04V33C1345.74 31.4133 1345.34 30.0533 1344.54 28.92C1343.76 27.7733 1342.73 27.2 1341.46 27.2C1340.2 27.2 1339.17 27.76 1338.38 28.88C1337.6 30 1337.2 31.36 1337.2 32.96V33C1337.2 34.5867 1337.6 35.9533 1338.38 37.1ZM1350.77 40L1357.09 27.44H1349.39V26H1358.89V27.18L1352.53 40H1350.77Z" fill="#2E3777"/>
</svg>
